<?xml version="1.0" encoding="UTF-8"?>
<!DOCTYPE svg PUBLIC "-//W3C//DTD SVG 1.1//EN" "http://www.w3.org/Graphics/SVG/1.1/DTD/svg11.dtd">
<!-- Creator: CorelDRAW 2021 (64-Bit) -->
<svg xmlns="http://www.w3.org/2000/svg" xml:space="preserve" width="0.333331in" height="0.333331in" version="1.1" style="shape-rendering:geometricPrecision; text-rendering:geometricPrecision; image-rendering:optimizeQuality; fill-rule:evenodd; clip-rule:evenodd"
viewBox="0 0 333.33 333.33"
 xmlns:xlink="http://www.w3.org/1999/xlink"
 xmlns:xodm="http://www.corel.com/coreldraw/odm/2003">
 <defs>
  <style type="text/css">
   <![CDATA[
    .fil2 {fill:white}
    .fil1 {fill:white;fill-rule:nonzero}
    .fil0 {fill:url(#id0);fill-rule:nonzero}
   ]]>
  </style>
  <linearGradient id="id0" gradientUnits="userSpaceOnUse" x1="2.91" y1="135.61" x2="330.42" y2="197.72">
   <stop offset="0" style="stop-opacity:1; stop-color:#009900"/>
   <stop offset="1" style="stop-opacity:1; stop-color:#005500"/>
  </linearGradient>
 </defs>
 <g id="Layer_x0020_1">
  <metadata id="CorelCorpID_0Corel-Layer"/>
  <g id="_2739880278976">
   <path class="fil0" d="M166.67 333.33c23.84,0 45.78,-3.96 65.83,-11.91 20.04,-7.94 37.67,-19.35 52.89,-34.22 15.22,-14.89 27.02,-32.49 35.39,-52.83 8.37,-20.34 12.56,-42.91 12.56,-67.7 0,-24.8 -4.19,-47.37 -12.56,-67.71 -8.37,-20.33 -20.04,-37.94 -35,-52.82 -14.97,-14.89 -32.6,-26.3 -52.89,-34.23 -20.3,-7.93 -42.37,-11.91 -66.21,-11.91 -23.85,0 -45.79,3.97 -65.83,11.91 -20.04,7.94 -37.67,19.35 -52.89,34.23 -15.22,14.88 -27.01,32.49 -35.39,52.82 -8.37,20.34 -12.55,42.91 -12.55,67.71 0,24.31 4.19,46.75 12.55,67.33 8.38,20.58 20.05,38.31 35.01,53.2 14.96,14.88 32.59,26.29 52.89,34.22 20.3,7.94 42.36,11.91 66.21,11.91z"/>
   <path class="fil1" d="M75.26 192.76l-0.15 -20.06c0,-1.41 0.18,-2.69 0.53,-3.85 0.35,-1.15 1.03,-2.24 2.04,-3.24 1.01,-1.11 2.11,-1.89 3.32,-2.34 1.21,-0.45 2.56,-0.68 4.07,-0.68l28.65 0c0.1,0 0.18,0 0.23,0 0.05,0 0.13,-0.05 0.22,-0.15 0,0 0.03,0 0.07,0 0.05,0 0.08,0 0.08,0 0.1,0 0.2,-0.02 0.3,-0.07 0.1,-0.05 0.15,-0.07 0.15,-0.07 0.1,-0.1 0.2,-0.23 0.3,-0.38 0.1,-0.15 0.15,-0.33 0.15,-0.53 0,0 0,-0.02 0,-0.07 0,-0.05 0,-0.13 0,-0.22l0 -16.94c0,-0.1 0,-0.18 0,-0.23 0,-0.05 -0.05,-0.13 -0.15,-0.22 0,0 0,-0.03 0,-0.07 0,-0.05 0,-0.08 0,-0.08 0,-0.1 -0.02,-0.2 -0.07,-0.3 -0.05,-0.1 -0.07,-0.15 -0.07,-0.15 -0.1,-0.1 -0.23,-0.2 -0.38,-0.3 -0.15,-0.1 -0.33,-0.15 -0.53,-0.15 0,0 -0.02,0 -0.07,0 -0.05,0 -0.13,0 -0.23,0l-26.99 0c-0.1,0 -0.18,0 -0.23,0 -0.05,0 -0.13,0.05 -0.22,0.15 -0.1,0 -0.18,0.02 -0.23,0.07 -0.05,0.05 -0.07,0.07 -0.07,0.07 -0.1,0 -0.17,0.03 -0.22,0.07 -0.05,0.05 -0.07,0.07 -0.07,0.07 0,0 -0.03,0.03 -0.08,0.08 -0.05,0.05 -0.07,0.13 -0.07,0.22 0,0 -0.02,0.02 -0.07,0.07 -0.05,0.05 -0.07,0.13 -0.07,0.23 -0.1,0.1 -0.15,0.17 -0.15,0.22 0,0.05 0,0.13 0,0.23l0 7.06c0,0.07 0,0.15 0,0.2 0,0.05 0,0.07 0,0.07 0,0.2 -0.05,0.38 -0.15,0.53 -0.1,0.15 -0.2,0.28 -0.3,0.38 0,0 -0.05,0.02 -0.15,0.07 -0.1,0.05 -0.2,0.07 -0.3,0.07 0,0 -0.02,0 -0.07,0 -0.05,0 -0.07,0 -0.07,0 -0.1,0.1 -0.18,0.15 -0.23,0.15 -0.05,0 -0.13,0 -0.22,0l-7.09 0c-0.1,0 -0.17,0 -0.22,0 -0.05,0 -0.13,-0.05 -0.23,-0.15 0,0 -0.02,0 -0.07,0 -0.05,0 -0.07,0 -0.07,0 -0.1,0 -0.2,-0.02 -0.3,-0.07 -0.1,-0.05 -0.15,-0.07 -0.15,-0.07 -0.1,-0.1 -0.2,-0.23 -0.3,-0.38 -0.1,-0.15 -0.15,-0.33 -0.15,-0.53 0,0 0,-0.03 0,-0.07 0,-0.05 0,-0.13 0,-0.2l0 -8.42c0,-1.48 0.23,-2.87 0.68,-4.12 0.45,-1.26 1.18,-2.36 2.19,-3.37 1,-0.9 2.06,-1.61 3.17,-2.11 1.11,-0.5 2.37,-0.75 3.77,-0.75l30.31 0c1.51,0 2.92,0.17 4.22,0.53 1.31,0.35 2.46,1.08 3.47,2.19 0.91,0.98 1.53,2.06 1.89,3.24 0.35,1.18 0.53,2.46 0.53,3.84l-0.15 50.67c0,1.31 -0.2,2.54 -0.61,3.69 -0.4,1.16 -1,2.24 -1.81,3.24 -1.01,1.11 -2.14,1.89 -3.39,2.34 -1.26,0.45 -2.64,0.68 -4.15,0.68l-30.01 0c-1.51,0 -2.87,-0.25 -4.07,-0.76 -1.2,-0.5 -2.31,-1.26 -3.31,-2.26 -1.01,-1.11 -1.69,-2.21 -2.04,-3.32 -0.35,-1.11 -0.53,-2.36 -0.53,-3.77zm19.76 -1.51c0,0.1 0,0.17 0,0.22 0,0.05 0,0.07 0,0.07 0,0.2 0.05,0.38 0.15,0.53 0.1,0.15 0.2,0.28 0.3,0.38 0,0 0.05,0.02 0.15,0.07 0.1,0.05 0.2,0.07 0.3,0.07 0,0 0.03,0 0.08,0 0.05,0 0.07,0 0.07,0 0.1,0.1 0.17,0.15 0.22,0.15 0.05,0 0.13,0 0.23,0l17.34 0c0.1,0 0.17,0 0.22,0 0.05,0 0.13,-0.05 0.23,-0.15 0,0 0.02,0 0.07,0 0.05,0 0.07,0 0.07,0 0.1,0 0.2,-0.02 0.3,-0.07 0.1,-0.05 0.15,-0.07 0.15,-0.07 0.1,-0.1 0.2,-0.23 0.3,-0.38 0.1,-0.15 0.15,-0.33 0.15,-0.53 0,0 0,-0.02 0,-0.07 0,-0.05 0,-0.13 0,-0.22l0 -17.04c0,-0.1 0,-0.18 0,-0.22 0,-0.05 -0.05,-0.13 -0.15,-0.23 0,0 0,-0.02 0,-0.07 0,-0.05 0,-0.07 0,-0.07 0,-0.1 -0.02,-0.2 -0.07,-0.3 -0.05,-0.1 -0.07,-0.15 -0.07,-0.15 -0.1,-0.1 -0.22,-0.2 -0.38,-0.3 -0.15,-0.1 -0.33,-0.15 -0.53,-0.15 0,0 -0.02,0 -0.07,0 -0.05,0 -0.13,0 -0.22,0l-17.34 0c-0.1,0 -0.18,0 -0.23,0 -0.05,0 -0.13,0.05 -0.22,0.15 -0.1,0 -0.18,0.03 -0.23,0.07 -0.05,0.05 -0.07,0.08 -0.07,0.08 -0.1,0 -0.18,0.02 -0.22,0.07 -0.05,0.05 -0.08,0.07 -0.08,0.07 0,0 -0.02,0.02 -0.07,0.07 -0.05,0.05 -0.07,0.13 -0.07,0.23 0,0 -0.02,0.02 -0.07,0.07 -0.05,0.05 -0.07,0.13 -0.07,0.22 -0.1,0.1 -0.15,0.18 -0.15,0.23 0,0.05 0,0.13 0,0.22l0 17.04z"/>
   <path id="_1" class="fil1" d="M192.15 122.33l0 70.58c0,1.31 -0.2,2.54 -0.6,3.69 -0.41,1.16 -1.01,2.24 -1.81,3.24 -1,1.11 -2.14,1.89 -3.39,2.34 -1.26,0.45 -2.64,0.68 -4.15,0.68l-40.42 0c-1.51,0 -2.87,-0.25 -4.07,-0.76 -1.21,-0.5 -2.31,-1.26 -3.32,-2.26 -1,-1.11 -1.69,-2.21 -2.04,-3.32 -0.35,-1.11 -0.53,-2.36 -0.53,-3.77l0 -70.28c0,-1.51 0.2,-2.89 0.6,-4.15 0.4,-1.26 1.11,-2.39 2.11,-3.39 1.01,-0.91 2.09,-1.58 3.24,-2.04 1.16,-0.45 2.44,-0.68 3.85,-0.68l40.41 0c1.51,0 2.89,0.2 4.15,0.6 1.26,0.4 2.39,1.16 3.39,2.26 0.9,1.01 1.56,2.11 1.96,3.32 0.4,1.21 0.6,2.52 0.6,3.92zm-9.95 68.92l0 -47.2c0,-0.1 0,-0.18 0,-0.22 0,-0.05 -0.05,-0.13 -0.15,-0.23 0,0 0,-0.02 0,-0.07 0,-0.05 0,-0.07 0,-0.07 0,-0.1 -0.02,-0.2 -0.07,-0.3 -0.05,-0.1 -0.07,-0.15 -0.07,-0.15 -0.1,-0.1 -0.22,-0.2 -0.38,-0.3 -0.15,-0.1 -0.33,-0.15 -0.53,-0.15 0,0 -0.02,0 -0.07,0 -0.05,0 -0.13,0 -0.22,0l-8.75 0c-1.51,0 -2.87,-0.25 -4.07,-0.76 -1.21,-0.5 -2.31,-1.26 -3.32,-2.26 -1,-1.11 -1.69,-2.21 -2.04,-3.32 -0.35,-1.11 -0.53,-2.36 -0.53,-3.77l0 -8.45c0,-0.1 0,-0.17 0,-0.22 0,-0.05 -0.05,-0.13 -0.15,-0.22 0,0 0,-0.03 0,-0.08 0,-0.05 0,-0.07 0,-0.07 0,-0.1 -0.03,-0.2 -0.08,-0.3 -0.05,-0.1 -0.07,-0.15 -0.07,-0.15 -0.1,-0.1 -0.22,-0.2 -0.38,-0.3 -0.15,-0.1 -0.33,-0.2 -0.53,-0.3 0,0 -0.02,0 -0.07,0 -0.05,0 -0.13,0 -0.22,0l-16.89 0c-0.1,0 -0.18,0 -0.23,0 -0.05,0 -0.13,0.05 -0.22,0.15 -0.1,0 -0.18,0.03 -0.23,0.08 -0.05,0.05 -0.07,0.07 -0.07,0.07 -0.1,0 -0.18,0.02 -0.22,0.07 -0.05,0.05 -0.08,0.07 -0.08,0.07 0,0 -0.02,0.02 -0.07,0.07 -0.05,0.05 -0.07,0.13 -0.07,0.23 0,0 -0.02,0.02 -0.07,0.07 -0.05,0.05 -0.07,0.13 -0.07,0.22 -0.1,0.1 -0.15,0.18 -0.15,0.23 0,0.05 0,0.13 0,0.22l0 67.41c0,0.1 0,0.17 0,0.22 0,0.05 0,0.07 0,0.07 0,0.2 0.05,0.38 0.15,0.53 0.1,0.15 0.2,0.28 0.3,0.38 0,0 0.05,0.02 0.15,0.07 0.1,0.05 0.2,0.07 0.3,0.07 0,0 0.03,0 0.08,0 0.05,0 0.07,0 0.07,0 0.1,0.1 0.17,0.15 0.22,0.15 0.05,0 0.13,0 0.23,0l37.1 0c0.1,0 0.17,0 0.22,0 0.05,0 0.13,-0.05 0.23,-0.15 0,0 0.02,0 0.07,0 0.05,0 0.07,0 0.07,0 0.1,0 0.2,-0.02 0.3,-0.07 0.1,-0.05 0.15,-0.07 0.15,-0.07 0.1,-0.1 0.2,-0.23 0.3,-0.38 0.1,-0.15 0.15,-0.33 0.15,-0.53 0,0 0,-0.02 0,-0.07 0,-0.05 0,-0.13 0,-0.22z"/>
   <path id="_2" class="fil1" d="M248.11 130.93l0 -7.09c0,-0.1 0,-0.18 0,-0.22 0,-0.05 -0.05,-0.13 -0.15,-0.23 0,0 0,-0.02 0,-0.07 0,-0.05 0,-0.07 0,-0.07 0,-0.1 -0.02,-0.2 -0.07,-0.3 -0.05,-0.1 -0.07,-0.15 -0.07,-0.15 -0.1,-0.1 -0.22,-0.2 -0.38,-0.3 -0.15,-0.1 -0.33,-0.15 -0.53,-0.15 0,0 -0.02,0 -0.07,0 -0.05,0 -0.13,0 -0.22,0l-37.1 0c-0.1,0 -0.18,0 -0.23,0 -0.05,0 -0.13,0.05 -0.22,0.15 -0.1,0 -0.18,0.03 -0.23,0.08 -0.05,0.05 -0.07,0.07 -0.07,0.07 -0.1,0 -0.18,0.02 -0.22,0.07 -0.05,0.05 -0.08,0.07 -0.08,0.07 0,0 -0.02,0.02 -0.07,0.07 -0.05,0.05 -0.07,0.13 -0.07,0.23 0,0 -0.02,0.02 -0.07,0.07 -0.05,0.05 -0.07,0.13 -0.07,0.22 -0.1,0.1 -0.15,0.18 -0.15,0.23 0,0.05 0,0.13 0,0.22l0 27.3c0,0.1 0,0.18 0,0.23 0,0.05 0,0.07 0,0.07 0,0.2 0.05,0.38 0.15,0.53 0.1,0.15 0.2,0.28 0.3,0.38 0,0 0.05,0.02 0.15,0.07 0.1,0.05 0.2,0.07 0.3,0.07 0,0 0.03,0 0.08,0 0.05,0 0.07,0 0.07,0 0.1,0.1 0.17,0.15 0.22,0.15 0.05,0 0.13,0 0.23,0l38.45 0c1.51,0 2.89,0.2 4.15,0.61 1.26,0.4 2.39,1.15 3.39,2.26 0.9,1.01 1.56,2.11 1.96,3.32 0.4,1.2 0.6,2.51 0.6,3.92l0 30.16c0,1.31 -0.2,2.54 -0.6,3.69 -0.41,1.16 -1.01,2.24 -1.81,3.24 -1,1.11 -2.14,1.89 -3.39,2.34 -1.26,0.45 -2.64,0.68 -4.15,0.68l-40.42 0c-1.51,0 -2.87,-0.25 -4.07,-0.76 -1.21,-0.5 -2.31,-1.26 -3.32,-2.26 -1,-1.11 -1.69,-2.21 -2.04,-3.32 -0.35,-1.11 -0.53,-2.36 -0.53,-3.77l0 -8.6c0,-0.1 0,-0.18 0,-0.22 0,-0.05 0.05,-0.13 0.15,-0.23 0,-0.1 0.03,-0.17 0.07,-0.22 0.05,-0.05 0.07,-0.07 0.07,-0.07 0,-0.1 0.03,-0.18 0.08,-0.23 0.05,-0.05 0.07,-0.07 0.07,-0.07 0,0 0.02,-0.02 0.07,-0.07 0.05,-0.05 0.13,-0.07 0.22,-0.07 0,0 0.03,-0.03 0.08,-0.07 0.05,-0.05 0.12,-0.08 0.22,-0.08 0.1,-0.1 0.18,-0.15 0.22,-0.15 0.05,0 0.13,0 0.23,0l7.24 0c0.1,0 0.17,0 0.22,0 0.05,0 0.07,0 0.07,0 0.2,0 0.38,0.05 0.53,0.15 0.15,0.1 0.28,0.2 0.38,0.3 0,0 0.02,0.05 0.07,0.15 0.05,0.1 0.07,0.2 0.07,0.3 0,0 0,0.02 0,0.07 0,0.05 0,0.07 0,0.07 0.1,0.1 0.15,0.18 0.15,0.23 0,0.05 0,0.13 0,0.22l0 7.09c0,0.1 0,0.17 0,0.22 0,0.05 0,0.07 0,0.07 0,0.2 0.05,0.38 0.15,0.53 0.1,0.15 0.2,0.28 0.3,0.38 0,0 0.05,0.02 0.15,0.07 0.1,0.05 0.2,0.07 0.3,0.07 0,0 0.03,0 0.08,0 0.05,0 0.07,0 0.07,0 0.1,0.1 0.17,0.15 0.22,0.15 0.05,0 0.13,0 0.23,0l26.99 0c0.1,0 0.18,0 0.23,0 0.05,0 0.13,-0.05 0.22,-0.15 0,0 0.03,0 0.07,0 0.05,0 0.07,0 0.07,0 0.1,0 0.2,-0.02 0.3,-0.07 0.1,-0.05 0.15,-0.07 0.15,-0.07 0.1,-0.1 0.2,-0.23 0.3,-0.38 0.1,-0.15 0.15,-0.33 0.15,-0.53 0,0 0,-0.02 0,-0.07 0,-0.05 0,-0.13 0,-0.22l0 -27.15c0,-0.1 0,-0.18 0,-0.23 0,-0.05 -0.05,-0.13 -0.15,-0.22 0,0 0,-0.03 0,-0.07 0,-0.05 0,-0.08 0,-0.08 0,-0.1 -0.02,-0.2 -0.07,-0.3 -0.05,-0.1 -0.07,-0.15 -0.07,-0.15 -0.1,-0.1 -0.23,-0.2 -0.38,-0.3 -0.15,-0.1 -0.33,-0.15 -0.53,-0.15 0,0 -0.03,0 -0.07,0 -0.05,0 -0.13,0 -0.23,0l-28.65 0c-1.51,0 -2.89,-0.23 -4.15,-0.68 -1.26,-0.45 -2.39,-1.18 -3.39,-2.19 -0.91,-1.03 -1.56,-2.14 -1.96,-3.34 -0.4,-1.21 -0.6,-2.52 -0.6,-3.92l0 -29.96c0,-1.51 0.22,-2.89 0.68,-4.17 0.45,-1.26 1.18,-2.39 2.19,-3.39 1,-0.91 2.09,-1.58 3.24,-2.04 1.16,-0.45 2.44,-0.68 3.85,-0.68l40.42 0c1.51,0 2.89,0.2 4.15,0.6 1.26,0.4 2.39,1.16 3.39,2.26 0.91,1.01 1.56,2.14 1.96,3.35 0.4,1.23 0.6,2.54 0.6,3.97l0 8.52c0,0.1 0,0.17 0,0.22 0,0.05 -0.05,0.13 -0.15,0.22 0,0 0,0.03 0,0.08 0,0.05 0,0.07 0,0.07 0,0.1 -0.03,0.2 -0.07,0.3 -0.05,0.1 -0.07,0.15 -0.07,0.15 -0.1,0.1 -0.23,0.2 -0.38,0.3 -0.15,0.1 -0.33,0.15 -0.53,0.15 0,0 -0.03,0 -0.07,0 -0.05,0 -0.13,0 -0.23,0l-7.09 0c-0.1,0 -0.18,0 -0.23,0 -0.05,0 -0.13,-0.05 -0.22,-0.15 -0.1,0 -0.18,-0.02 -0.23,-0.07 -0.05,-0.05 -0.07,-0.07 -0.07,-0.07 -0.1,0 -0.17,-0.02 -0.22,-0.07 -0.05,-0.05 -0.07,-0.07 -0.07,-0.07 0,0 -0.03,-0.03 -0.08,-0.08 -0.05,-0.05 -0.07,-0.12 -0.07,-0.22 0,0 -0.02,-0.02 -0.07,-0.07 -0.05,-0.05 -0.07,-0.13 -0.07,-0.23 -0.1,-0.1 -0.15,-0.17 -0.15,-0.22 0,-0.05 0,-0.13 0,-0.22z"/>
   <rect class="fil2" x="95.04" y="214.97" width="143.25" height="6.15"/>
  </g>
 </g>
</svg>
