<?xml version="1.0" encoding="UTF-8"?>
<!DOCTYPE svg PUBLIC "-//W3C//DTD SVG 1.1//EN" "http://www.w3.org/Graphics/SVG/1.1/DTD/svg11.dtd">
<!-- Creator: CorelDRAW 2021 (64-Bit) -->
<svg xmlns="http://www.w3.org/2000/svg" xml:space="preserve" width="4.26666in" height="3.06666in" version="1.1" style="shape-rendering:geometricPrecision; text-rendering:geometricPrecision; image-rendering:optimizeQuality; fill-rule:evenodd; clip-rule:evenodd"
viewBox="0 0 4266.66 3066.66"
 xmlns:xlink="http://www.w3.org/1999/xlink"
 xmlns:xodm="http://www.corel.com/coreldraw/odm/2003">
 <defs>
  <style type="text/css">
   <![CDATA[
    .fil3 {fill:black;fill-rule:nonzero}
    .fil2 {fill:white;fill-rule:nonzero}
    .fil1 {fill:white;fill-rule:nonzero}
    .fil0 {fill:url(#id0);fill-rule:nonzero}
    .fil4 {fill:url(#id1);fill-rule:nonzero}
    .fil5 {fill:url(#id2);fill-rule:nonzero}
   ]]>
  </style>
  <linearGradient id="id0" gradientUnits="userSpaceOnUse" x1="6773.34" y1="31.02" x2="7294.16" y2="134.36">
   <stop offset="0" style="stop-opacity:1; stop-color:#009900"/>
   <stop offset="1" style="stop-opacity:1; stop-color:#005500"/>
  </linearGradient>
  <linearGradient id="id1" gradientUnits="userSpaceOnUse" xlink:href="#id0" x1="1593.66" y1="1426.25" x2="2673" y2="1640.41">
  </linearGradient>
  <linearGradient id="id2" gradientUnits="userSpaceOnUse" xlink:href="#id0" x1="6364.07" y1="61.3" x2="6697.56" y2="-161.76">
  </linearGradient>
 </defs>
 <g id="Layer_x0020_1">
  <metadata id="CorelCorpID_0Corel-Layer"/>
  <path class="fil0" d="M6787.72 35.55l198.89 -198.89c25.93,-25.93 68.35,-25.93 94.28,0l198.89 198.89c25.93,25.93 25.93,68.35 0,94.28l-90.17 90.17c1.37,-3.52 2.05,-7.2 2.05,-11.08 0,-5.13 -1.09,-10.04 -3.37,-14.72l-125.83 -251.66c-2.74,-5.54 -6.73,-9.87 -11.87,-13.01 -5.07,-3.14 -10.72,-4.68 -16.83,-4.68 -6.16,0 -11.81,1.54 -16.88,4.68 -5.13,3.14 -9.13,7.47 -11.87,13.01l-125.83 251.66c-2.22,4.68 -3.37,9.58 -3.37,14.72 0,3.88 0.69,7.57 2.06,11.09l-90.18 -90.18c-25.93,-25.93 -25.93,-68.35 0,-94.28zm383.7 202.65l-90.52 90.52c-25.93,25.93 -68.35,25.93 -94.28,0l-90.54 -90.54c3.75,1.54 7.65,2.33 11.82,2.33l251.72 0c4.16,0 8.11,-0.78 11.8,-2.31z"/>
  <path class="fil1" d="M6993.13 133.64c-1.4,0 -2.71,-0.28 -3.96,-0.81 -1.23,-0.54 -2.34,-1.27 -3.3,-2.19 -0.94,-0.9 -1.69,-1.99 -2.26,-3.22 -0.55,-1.25 -0.83,-2.58 -0.83,-3.98 0,-1.66 0.37,-3.24 1.09,-4.75l40.62 -81.24c0.88,-1.79 2.17,-3.19 3.83,-4.2 1.64,-1.02 3.46,-1.51 5.45,-1.51 1.97,0 3.79,0.5 5.43,1.51 1.66,1.01 2.94,2.41 3.83,4.2l40.62 81.24c0.74,1.51 1.09,3.09 1.09,4.75 0,1.4 -0.28,2.72 -0.83,3.98 -0.57,1.23 -1.32,2.32 -2.26,3.22 -0.96,0.92 -2.06,1.66 -3.3,2.19 -1.23,0.54 -2.56,0.81 -3.96,0.81l-81.26 0z"/>
  <path class="fil2" d="M7739.13 296.61c-29.79,0 -58.34,-3.99 -85.65,-11.97 -27.31,-7.98 -49.3,-18.35 -65.96,-31.12l29.26 -64.9c15.96,11.35 34.84,20.66 56.65,27.93 21.81,7.27 43.89,10.91 66.23,10.91 17.02,0 30.76,-1.69 41.23,-5.06 10.46,-3.37 18.17,-8.07 23.14,-14.09 4.96,-6.03 7.45,-12.94 7.45,-20.75 0,-9.93 -3.9,-17.82 -11.7,-23.67 -7.8,-5.85 -18.09,-10.64 -30.85,-14.36 -12.77,-3.72 -26.87,-7.27 -42.29,-10.64 -15.43,-3.37 -30.85,-7.54 -46.28,-12.5 -15.43,-4.96 -29.52,-11.35 -42.29,-19.15 -12.77,-7.8 -23.14,-18.09 -31.12,-30.85 -7.98,-12.77 -11.97,-29.08 -11.97,-48.94 0,-21.28 5.76,-40.7 17.29,-58.25 11.53,-17.56 28.91,-31.56 52.13,-42.02 23.23,-10.46 52.4,-15.69 87.51,-15.69 23.41,0 46.46,2.75 69.15,8.24 22.7,5.5 42.74,13.74 60.11,24.74l-26.59 65.43c-17.38,-9.93 -34.76,-17.29 -52.13,-22.08 -17.38,-4.79 -34.4,-7.18 -51.07,-7.18 -16.67,0 -30.32,1.95 -40.96,5.85 -10.64,3.9 -18.26,8.95 -22.88,15.16 -4.61,6.21 -6.91,13.39 -6.91,21.55 0,9.57 3.9,17.29 11.7,23.14 7.8,5.85 18.09,10.55 30.85,14.1 12.77,3.55 26.87,7.09 42.29,10.64 15.43,3.55 30.85,7.63 46.28,12.24 15.43,4.61 29.52,10.81 42.29,18.62 12.77,7.8 23.14,18.09 31.12,30.85 7.98,12.77 11.97,28.9 11.97,48.41 0,20.92 -5.85,40.07 -17.56,57.45 -11.7,17.37 -29.17,31.39 -52.4,42.02 -23.23,10.64 -52.57,15.96 -88.04,15.96z"/>
  <path class="fil2" d="M8903.46 1226.53c16.67,0 32,-2.83 46.02,-8.51 14.01,-5.67 26.33,-13.83 36.97,-24.47 10.64,-10.64 18.89,-23.23 24.74,-37.77 5.85,-14.54 8.78,-30.67 8.78,-48.41 0,-17.73 -2.93,-33.87 -8.78,-48.41 -5.85,-14.54 -14.01,-27.13 -24.47,-37.77 -10.46,-10.64 -22.79,-18.8 -36.97,-24.47 -14.19,-5.67 -29.61,-8.51 -46.28,-8.51 -16.67,0 -32.01,2.84 -46.02,8.51 -14.01,5.67 -26.33,13.83 -36.97,24.47 -10.64,10.64 -18.88,23.23 -24.74,37.77 -5.85,14.54 -8.78,30.68 -8.78,48.41 0,17.38 2.93,33.43 8.78,48.14 5.85,14.72 14.01,27.39 24.47,38.04 10.46,10.64 22.78,18.8 36.97,24.47 14.19,5.68 29.61,8.51 46.28,8.51z"/>
  <path class="fil2" d="M7463.58 305.07c-29.44,0 -56.65,-4.79 -81.66,-14.36 -25,-9.57 -46.63,-23.05 -64.9,-40.43 -18.26,-17.38 -32.45,-37.77 -42.56,-61.17 -3.88,-8.98 -7.01,-18.28 -9.4,-27.89l31.39 -31.39c25.93,-25.93 25.93,-68.35 0,-94.28l-14.69 -14.69c9.31,-17.21 21.15,-32.59 35.53,-46.14 18.44,-17.38 40.07,-30.85 64.9,-40.43 24.82,-9.57 51.78,-14.36 80.86,-14.36 29.43,0 56.48,4.79 81.12,14.36 22.35,8.69 42.08,20.57 59.19,35.68 -2,2.48 -3.86,5.04 -5.59,7.68 -11.52,17.56 -17.29,36.97 -17.29,58.25 0,19.86 3.99,36.17 11.97,48.94 7.98,12.76 18.35,23.05 31.12,30.85 12.7,7.77 26.73,14.13 42.07,19.08 -2.03,19.17 -6.76,37.28 -14.15,54.31 -0.04,0.09 -0.04,0.33 -0.12,0.28l-34.85 -19.86 -43.49 92.48c3.55,2.72 7.35,5.33 11.38,7.83 -12.3,8.29 -25.72,15.25 -40.24,20.89 -24.65,9.57 -51.51,14.36 -80.59,14.36z"/>
  <path class="fil2" d="M7395.49 1039.8l3.63 6.3 6.3 3.63 6.74 2.57 5.14 4.17c-0.53,-1.95 -1.42,-3.81 -2.57,-5.76l-6.2 -3.1c-2.13,-0.71 -3.99,-2.04 -5.76,-4.17 0.09,-0.62 0.44,-1.06 1.06,-1.5l6.74 0.44 5.23 1.6c0.71,-0.09 1.15,-0.44 1.5,-1.07l1.07 -3.1 5.76 0c2.04,1.24 4.25,2.13 6.74,2.57l43.62 4.17 14.01 5.23 4.7 4.7c0.89,2.3 1.51,4.87 2.04,7.8l-0.53 4.61 1.6 1.59c2.13,-0.8 3.54,-2.48 4.17,-5.23l0 -3.63 5.14 1.06c1.86,1.15 3.55,2.48 5.23,4.17l-1.06 6.2c2.39,0.18 4.61,0.89 6.83,2.13l-1.6 4.17 2.04 0.44 0.53 -0.44c1.86,0 3.72,0.53 5.76,1.51 1.15,2.13 2.04,4.52 2.57,7.27l0.53 5.76 2.57 -0.53 2.57 0 -0.97 6.74 -10.37 4.17c0.09,0.98 0.35,2.04 0.98,3.1l8.33 1.06c0.54,0.98 1.07,2.22 1.6,3.64l-1.06 10.37 -1.6 -1.59c-1.51,-1.51 -2.57,-3.63 -3.1,-6.2 -0.44,-0.98 -1.15,-1.86 -2.04,-2.57l-0.53 4.17 0 7.71 0.53 1.6 2.04 14.54 -1.51 1.06 -2.66 5.67 -4.61 4.7 0 4.17 0.97 4.17c0.98,0.8 2.22,1.42 3.64,2.04l1.59 -2.04c1.24,-1.69 2.84,-3.19 4.7,-4.7l2.57 -1.06 0 9.93 5.14 -0.53 8.33 1.51c2.04,-0.8 4.26,-1.51 6.74,-2.04l-3.1 15.6c0.35,2.48 1.06,5.06 2.13,7.8l0.98 15.52 -2.57 -0.53c-1.69,-0.89 -3.28,-2.31 -4.7,-4.08 0.62,-1.77 1.69,-3.63 3.11,-5.76 -1.07,-1.77 -2.13,-3.9 -3.11,-6.2l1.07 -7.8 -3.64 -5.67c-2.04,-0.89 -4.34,-1.42 -6.74,-1.59 -0.71,0.18 -1.24,0.53 -1.6,1.06l1.07 3.1 1.59 0.98 0.98 8.87 2.66 6.74c-1.95,0.89 -3.99,1.42 -6.3,1.6 -1.15,-0.71 -2.57,-1.24 -4.17,-1.6l-1.51 2.13 -3.1 16.05c-0.53,2.57 -1.24,5.14 -2.13,7.8l-5.15 4.17c-1.24,2.22 -1.95,4.61 -2.13,7.27l4.17 5.23 0.53 5.14 -0.53 1.6 -0.53 7.8c0,0.8 0.35,1.42 1.06,2.04l3.11 -0.53 0 -5.67 1.06 -8.33c1.24,-1.77 2.22,-3.9 3.1,-6.2l2.57 -25.98c0.09,-2.48 0.98,-4.96 2.66,-7.27 2.13,1.06 3.55,2.93 4.08,5.67 -0.62,2.57 -1.15,5.32 -1.51,8.33l-0.53 8.87 1.06 8.24c0.8,1.69 2.13,3.1 4.17,4.17l5.14 -4.61c0.89,-1.42 1.42,-3.19 1.6,-5.23l-2.57 -0.53c0.09,-1.51 0.62,-3.28 1.51,-5.14l-1.51 -7.8c1.51,-0.98 3.28,-1.69 5.14,-2.13l2.13 10.37 0 46.81c-2.04,0.89 -3.9,2.13 -5.76,3.63 2.13,0.35 4.26,1.33 6.2,3.1l0.53 9.31c-0.35,2.57 -0.89,5.32 -1.51,8.33l-1.06 5.76 0.53 2.04 1.06 8.87 -2.66 35.29c-0.27,2.39 -0.8,5.23 -1.51,8.33l-3.1 15.6 -11 27.49 -10.91 17.64 -21.81 16.14 -26.51 11.97 -17.11 2.04c-2.31,-0.44 -4.26,-1.78 -5.67,-4.17l-5.23 -4.17c-2.04,-1.06 -4.34,-1.95 -6.74,-2.57 -2.13,-0.89 -3.99,-2.22 -5.76,-4.17l-2.04 -0.53 0 1.06 2.04 3.64c1.69,1.42 3.55,2.57 5.76,3.63l7.27 2.57 0.53 2.66 -0.53 1.06 -5.23 0 -7.8 -1.59c-1.33,1.33 -2.93,2.48 -4.61,3.63l-7.27 -2.57 -17.2 -1.6c-2.48,0 -5.41,-0.35 -8.78,-1.06l-8.33 -0.98c-2.39,-0.62 -5.23,-1.15 -8.33,-1.59l-21.81 -6.74c-1.86,-1.24 -3.28,-3.11 -4.17,-5.76l1.59 -7.71 -1.06 -2.66 -4.7 0.53 -0.53 7.27c-0.09,0.44 -0.44,0.8 -0.97,1.06l-6.74 -3.1 -2.13 -1.6c0.09,-1.5 0.44,-3.01 1.06,-4.7l-6.21 -2.04c0.09,-1.69 0.36,-3.37 0.98,-5.23 -0.18,-0.62 -0.53,-1.15 -0.98,-1.51l-7.27 0 -1.06 -1.59c-0.8,-2.39 -1.33,-4.96 -1.6,-7.8l-0.53 -5.14c-0.71,0.09 -1.42,0.44 -2.04,0.98l-2.57 0.53 -0.53 -0.53 0.53 -4.61c1.24,-1.77 3.19,-3.1 5.67,-4.17 2.04,-0.54 3.72,-1.78 5.23,-3.64 -2.57,-0.71 -5.14,-1.24 -7.8,-1.59 -1.42,-1.95 -2.48,-4.26 -3.1,-6.74 0.18,-2.39 0.71,-5.05 1.51,-7.8 1.42,1.77 2.66,3.63 3.63,5.76 0.53,1.51 1.42,2.93 2.66,4.08l0 -11.88 0.44 -7.8 0.54 -1.06 -3.11 -6.21c1.42,-1.5 2.75,-3.19 4.17,-5.23l3.1 -6.74c0.71,-1.59 1.24,-3.28 1.59,-5.23l-0.53 -2.04 -1.59 -2.57 -4.61 0.53 -3.63 5.67c-2.22,-1.33 -3.46,-3.37 -3.64,-6.2l0 -3.11 -15.07 0.44 -4.7 1.06 0 -4.17c0.62,-2.31 1.15,-5.06 1.51,-8.25l1.6 -7.8 -3.11 -6.3 -0.53 -9.31 0.53 -3.63 4.7 1.06c1.77,1.15 2.84,3.1 3.1,5.67l-3.1 1.6 0.44 4.08c0.89,2.04 1.77,4.26 2.66,6.83l-2.13 4.61 1.06 2.13 4.17 5.14 2.04 1.07 4.7 -1.07c-0.98,-2.13 -2.13,-4.17 -3.64,-6.2l1.07 -8.33 -3.64 -6.2 5.68 -1.07 6.74 1.6 0.53 -3.1 0.53 -9.4 2.13 -7.8 3.1 -6.21c1.59,-1.24 3.55,-2.39 5.67,-3.63l0.53 -3.63 -0.53 -1.6 0 -3.63c-1.69,-0.62 -3.28,-1.86 -4.7,-3.63 0.71,-2.39 1.24,-4.96 1.59,-7.71l0 -8.87 -0.53 0c-2.39,0.8 -3.81,2.48 -4.17,5.14l-0.54 9.4c-1.24,1.69 -2.48,3.63 -3.63,5.67l-2.04 26.51 -2.04 7.27c-2.3,-0.44 -3.81,-1.77 -4.7,-4.17l1.51 -7.27c-0.71,-2.22 -1.24,-4.61 -1.51,-7.27l1.51 -7.8c-0.09,-2.22 -0.44,-4.61 -0.98,-7.27l-1.6 -2.04 -3.63 2.04c-1.59,1.42 -3.19,3.02 -4.7,4.7l-0.98 3.63 3.63 1.06 -1.59 7.27 1.06 6.74 -1.59 0.53c-2.57,-0.09 -4.52,-1.5 -5.68,-4.17l1.51 -7.8 -2.04 -7.27 -0.53 -18.71 0.53 -8.78 0 -7.8 0.53 -1.59 5.15 -4.17c-2.22,-0.62 -4.17,-1.95 -5.68,-4.17 -0.71,-2.31 -1.06,-5.06 -1.06,-8.25l0 -7.27 1.06 -1.6c1.42,-1.24 2.48,-2.93 3.11,-5.23l-3.11 -6.74 0.53 -8.78 0 -7.8 0.54 -1.06 2.04 -26.51c0.26,-2.3 0.8,-5.05 1.59,-8.33l5.67 -22.79 5.67 -13.56 11.44 -17.11 15.07 -13.48 5.76 -3.63 5.14 -4.7 37.41 -10.37c2.31,-0.44 4.7,-1.15 7.27,-2.13zm25.44 3.63l1.06 2.13 0.53 -2.13 -1.59 0zm21.9 8.87c-0.89,1.69 -1.59,3.64 -2.13,5.68l2.57 0.53 1.06 -0.53 1.06 0 1.51 -0.53c1.33,-1.07 2.39,-2.66 3.19,-4.61l-7.27 -0.54zm-62.42 1.07c-1.15,1.33 -2.04,2.93 -2.57,4.61l3.1 0.53 2.66 -1.06 -0.53 -4.08 -2.66 0zm91.5 3.1c0,1.95 0.35,3.9 0.97,5.67l-0.97 1.59c-2.22,0.8 -4.43,1.78 -6.83,3.11 -2.04,1.06 -4.08,2.22 -6.21,3.63l-17.64 11.97 -3.1 2.57 0.53 3.63c2.13,-0.18 4.52,-0.71 7.27,-1.59 2.04,-0.89 4.17,-2.13 6.21,-3.63 2.04,-0.89 4.17,-2.13 6.2,-3.64l18.18 -11.44 5.23 -4.61 1.07 -3.63 -10.91 -3.63zm-49.92 7.8l-2.57 0.44c0.18,1.86 0.89,3.63 2.04,5.23l2.13 0 0 -4.7c-0.35,-0.44 -0.89,-0.71 -1.59,-0.97zm-79.97 2.57l-2.13 7.27 0 7.27 0.53 1.59 0.53 11.35c1.33,-0.18 2.48,-0.8 3.63,-2.04l-2.04 -2.04 2.57 -3.19 0.54 -5.67 -1.07 -1.6 -0.53 -2.04 1.06 -5.23c-0.71,-1.95 -1.77,-3.9 -3.1,-5.67zm144.96 0.53c0.27,1.86 1.51,2.93 3.63,3.1 -0.44,-1.59 -1.69,-2.57 -3.63,-3.1zm9.84 10.37l0.53 20.21 0.97 5.76 2.13 4.7c1.06,1.15 2.39,2.04 4.17,2.57 1.15,-0.53 2.39,-1.42 3.64,-2.57 0.89,-1.24 1.33,-2.66 1.51,-4.17l-3.11 -3.63 -4.17 -3.11 -0.98 -5.76c1.51,-0.71 3.28,-1.24 5.14,-1.51l2.13 0 0 -11.44 -5.23 -1.06 -6.74 0zm-75.89 1.06l-0.44 5.14 0.44 2.13 0.53 0.98 1.59 0 0.53 -7.27 0 -0.97 -2.66 0zm-88.84 2.04c-0.71,0.97 -1.24,2.04 -1.51,3.1l2.04 0 1.06 -2.57 -1.59 -0.53zm136.18 2.13l1.51 1.51c-0.26,-0.71 -0.8,-1.24 -1.51,-1.51zm33.69 -0.53c0.8,0.18 1.51,0.62 2.13,1.51l-2.57 2.13 -0.53 -3.1 0.98 0 0 -0.53zm-15.52 3.63l0 3.11 3.1 -0.54c-0.71,-1.15 -1.77,-2.04 -3.1,-2.57zm-8.87 2.57c-1.15,1.95 -2.84,3.37 -5.23,4.17l-0.98 3.63 8.78 -4.17 1.06 -3.64 -3.63 0zm-37.41 6.21l-0.54 1.59 1.6 -0.53c-0.09,-0.44 -0.44,-0.8 -1.06,-1.06zm-18.18 0.53c0.62,1.69 1.69,3.02 3.1,4.17 -0.71,-1.59 -1.69,-2.93 -3.1,-4.17zm97.7 0l0 2.13 1.51 -1.59 -1.51 -0.53zm-181.31 5.76l0.53 7.27 0.44 2.57 2.66 0 0.53 -1.06 0.98 -6.74c-1.59,-0.98 -3.37,-1.6 -5.14,-2.04zm-18.71 0.44c-0.53,2.93 -1.42,6.03 -2.57,9.4 -0.8,2.22 -2.04,4.7 -3.72,7.27 -1.86,1.59 -3.28,3.63 -4.07,6.2 0,2.84 1.33,4.7 4.07,5.76 1.15,-2.22 2.22,-4.79 3.19,-7.8l3.1 -8.33c1.07,-2.13 2.48,-4.43 4.17,-6.74l0.53 -5.76 -4.7 0zm215.54 0.53c1.86,1.51 3.28,3.55 4.17,6.3l4.7 15.52 0.53 7.8 -1.07 1.06c-2.21,-0.18 -4.34,-1.24 -6.2,-3.1l-2.13 -7.8 -0.44 -9.84 0.44 -9.93zm-101.25 4.17l1.06 3.63c0.09,0.53 0.36,0.89 0.98,1.06l0.53 -0.53 3.64 -0.53c0.71,-1.69 1.24,-3.63 1.59,-5.67l-6.74 0 -1.06 2.04zm-7.27 -1.51l0.53 3.1 2.57 -1.06 -3.1 -2.04zm59.22 0l0.53 5.14 2.04 -0.53 0 -4.61 -2.57 0zm-85.74 5.67l0 5.76 4.7 0 0 -0.53 0.53 -4.7 -5.23 -0.53zm12.5 6.74c-1.68,0.98 -3.1,2.39 -4.17,4.17 -1.33,1.33 -2.84,2.31 -4.7,3.1l-38.92 0 -25.98 -4.61 0 2.04 3.63 4.17 0.98 2.04 55.59 2.66 -0.53 4.08 -3.63 12.5 -0.98 31.74 -2.13 14.54 -6.74 1.51c-1.51,1.06 -2.75,2.48 -3.63,4.17 0.71,1.77 1.77,3.46 3.1,5.23 1.51,1.24 3.37,2.13 5.76,2.57 1.24,1.59 1.95,3.72 2.04,6.2l0 49.39c-0.09,2.3 -0.44,4.79 -1.06,7.27l-2.04 5.67c0.98,1.86 1.69,3.9 2.04,6.3l0 8.25c-0.53,1.95 -1.42,3.81 -2.57,5.76l-10.37 5.68c-2.13,0.44 -3.54,1.86 -4.17,4.17l0.53 2.57 4.17 -0.44 5.15 -3.11 6.83 -1.59c0.89,1.42 1.77,2.93 2.57,4.7l1.51 22.78c0.35,2.13 1.06,4.17 2.13,6.3l5.67 10.91 2.13 5.67c1.42,0.8 2.83,1.86 4.17,3.1l-3.19 5.23c1.33,1.51 2.93,2.66 4.7,3.63l5.23 0.53 1.5 -0.53 5.76 -2.57 7.27 -1.06c2.04,-0.26 4.17,-0.8 6.2,-1.59l4.17 -4.08 6.74 -1.6 59.76 4.7 2.13 0c-0.44,-1.15 -1.15,-2.39 -2.13,-3.63 -1.06,-1.42 -2.39,-2.84 -4.17,-4.17l-54.53 -3.1 4.7 -20.3 2.04 -38.39c0.09,-2.3 1.33,-3.81 3.63,-4.7 2.04,-0.44 4.08,-1.15 6.21,-2.13 -0.18,-1.86 -0.44,-3.81 -0.98,-5.67 -1.06,-1.6 -2.31,-3.1 -3.63,-4.7l-4.7 0 -0.53 -3.1 -0.53 -56.65 2.13 -6.2 0.53 -4.17 -0.53 -1.51 -1.06 -14.54 1.06 -1.59 5.14 -3.1 5.76 -2.13c1.51,-0.8 3.1,-2.04 4.61,-3.63 0.18,-1.06 0.35,-2.48 0.53,-4.08l-2.57 0.44 -11.97 4.17 -3.63 0 0 -5.14 -2.57 -21.81c-0.27,-2.22 -0.8,-4.43 -1.6,-6.83l-3.1 -4.61 -4.61 -11.97 -4.17 -3.1 2.57 -5.23c-1.69,-1.15 -3.55,-1.95 -5.76,-2.57l-22.79 2.04zm100.72 -0.98c-2.22,1.24 -4.61,1.95 -7.27,2.04l-4.61 -1.06 -1.06 2.66 -1.59 8.25 1.06 -2.04c1.15,-0.18 2.48,-0.35 4.17,-0.53l4.17 1.59c2.22,1.06 4.7,1.95 7.27,2.57l-0.53 -5.23 1.6 -7.27 -3.19 -0.98zm-43.09 0.98c-2.66,0.09 -5.32,0.98 -7.8,2.66 0.09,2.39 0.62,4.79 1.59,7.27 1.86,-1.33 3.81,-2.93 5.67,-4.7l2.57 -5.23 -2.04 0zm-42.56 1.59l3.63 0.53c-0.09,0.89 -0.44,1.78 -1.06,2.57l-3.63 0 1.06 -3.1zm22.34 4.7l-3.72 0.97 0 3.64 0.53 0c1.51,1.06 3.19,1.59 5.23,1.59 1.95,-0.26 3.19,-1.51 3.63,-3.63 -1.42,-1.6 -3.28,-2.48 -5.67,-2.57zm-113.31 4.61c-1.24,1.33 -2.13,2.93 -2.57,4.7 1.15,1.24 2.48,2.04 4.17,2.57 0.89,-1.15 1.59,-2.75 2.04,-4.61 -0.53,-1.69 -1.69,-2.57 -3.63,-2.66zm153.82 1.59l-0.53 4.7 0.53 1.5c0.09,0.71 0.35,1.24 0.98,1.6l2.66 -1.06c0.62,-1.69 1.15,-3.64 1.5,-5.68l-5.14 -1.06zm-23.41 2.57l-11.44 5.76c-0.71,1.77 -1.06,3.72 -1.06,5.67 0.26,0.53 0.8,0.89 1.59,1.06l12.94 -8.87c1.77,-0.62 3.46,-1.59 5.23,-3.1l-7.27 -0.53zm-159.5 3.63l-0.53 2.66 1.59 0 -1.06 -2.66zm203.65 0c-1.42,2.04 -2.57,4.26 -3.63,6.74l-0.54 3.19c1.42,-0.27 2.93,-0.8 4.7,-1.6 1.51,-1.42 3.1,-3.1 4.7,-5.23l0.44 -3.11 -5.67 0zm-186.54 2.13l-0.44 3.1 1.51 0.98 3.63 -0.44 0.53 -3.63 -5.23 0zm155.87 3.1c-0.98,1.33 -2.3,2.39 -4.17,3.1l-6.74 0.53c0,2.04 0.35,4.17 1.06,6.21 0.98,1.51 2.31,2.83 4.17,4.17l3.1 -4.7 7.27 -0.98 1.06 -6.83c-1.95,-0.62 -3.81,-1.15 -5.76,-1.51zm-15.6 4.7c-1.15,1.33 -2.04,3.1 -2.57,5.14 0.53,0.89 1.42,1.59 2.57,2.13l2.13 -0.53 0 -5.76 -2.13 -0.97zm80.59 0.97l3.1 0 -0.53 4.17 -2.57 0.53 0 -4.7zm-43.18 1.6l-0.98 4.17c0.35,1.15 0.62,2.57 0.98,4.17 -0.62,2.48 -1.42,5.05 -2.57,7.71l-2.57 7.36c0.18,0.89 0.71,1.42 1.51,1.51l4.17 -1.06c1.86,-1.07 3.72,-2.66 5.76,-4.61 0.71,-1.15 1.42,-2.57 2.04,-4.17 0,-0.89 -0.35,-1.77 -1.06,-2.66 -1.51,-1.95 -2.57,-4.34 -3.11,-7.27 -0.26,-2.48 -1.59,-4.17 -4.17,-5.14zm-195.32 4.17l0.53 1.51 0.53 -1.51 -1.06 0zm45.75 0.98l0 5.76 3.1 -0.53 0 -4.7 -3.1 -0.53zm104.89 3.19l0 2.57c0.98,-0.62 1.86,-1.51 2.66,-2.57l-2.66 0zm-151.17 6.2l1.06 5.67 3.63 -0.98 0.54 -4.17 -5.23 -0.53zm161.63 3.63c0.18,0.89 0.62,1.51 1.51,2.04 -0.35,-0.62 -0.89,-1.33 -1.51,-2.04zm-125.72 3.64l-11.97 4.17c-1.42,0.98 -2.57,2.13 -3.63,3.63l-0.53 4.7c0.26,0.44 0.8,0.8 1.59,0.98l4.61 -2.57 4.17 -3.63 6.74 -4.17 0 -2.57 -0.98 -0.53zm7.8 8.33c0.71,1.15 1.95,1.86 3.63,2.04 -1.06,-0.89 -2.3,-1.5 -3.63,-2.04zm173.95 0.54l-7.27 2.04 -17.11 8.87 -5.23 3.64 -6.2 2.57c-1.95,1.24 -3.02,3.19 -3.1,5.67l0.53 2.66 4.17 -1.07 34.22 -17.64c1.86,-0.8 3.55,-2.04 5.23,-3.63l-0.53 -3.1 -4.7 0zm-170.85 4.07l-1.06 4.7 1.06 2.13 3.11 -1.06 1.5 -4.17 -4.61 -1.6zm-44.69 1.07c-0.8,0.8 -1.33,1.69 -1.59,2.57 1.15,0.53 2.48,0.89 4.17,1.06l1.07 -3.63 -3.64 0zm162.07 15.07c0.18,1.51 0.89,2.84 2.04,4.17 -0.09,-1.5 -0.71,-2.83 -2.04,-4.17zm-137.69 0.53l-0.53 2.57c1.33,-0.26 2.39,-1.15 3.1,-2.57l-2.57 0zm180.25 3.1l0 2.57 5.76 0 0 -2.57 -5.76 0zm-180.78 4.7l-0.53 3.1c0.09,0.35 0.44,0.71 1.06,1.06l0.53 -0.53 0.54 -3.1 -1.6 -0.53zm137.69 0.98c-2.57,0.62 -5.23,1.68 -7.8,3.19l-0.54 5.14 2.13 -0.53 7.27 -3.63c0.89,-1.06 1.51,-2.48 2.04,-4.17l-3.1 0zm16.14 3.19l-0.53 4.17 2.04 -0.53 0.53 -3.64 -2.04 0zm12.41 0.53c0.44,1.15 1.33,2.04 2.66,2.57 -0.71,-0.97 -1.59,-1.86 -2.66,-2.57zm-25.45 7.27l-0.53 6.74 1.6 2.04 1.06 -1.06 0.98 -5.67 -3.11 -2.04zm31.21 2.57c-0.8,1.24 -1.5,2.57 -2.13,4.17l-3.1 -1.59c-2.66,-0.62 -5.76,-0.98 -9.31,-1.06l-2.66 1.06c0.09,1.95 0.44,3.81 1.06,5.76l6.74 3.1c2.93,0.44 5.5,1.59 7.8,3.63 1.59,0.8 3.28,1.24 5.23,1.51l0.53 -2.04c-0.8,-1.24 -1.33,-2.57 -1.6,-4.17l1.07 -10.37 -3.64 0zm-153.29 5.14c-1.24,1.06 -2.13,2.48 -2.57,4.17l6.74 0c-0.53,-2.04 -1.86,-3.46 -4.17,-4.17zm22.34 1.6c0.44,0.97 1.15,1.5 2.13,1.59l-2.13 -1.59zm105.95 2.04l-0.44 1.59 0.44 4.17 5.76 -0.53c-1.15,-2.22 -3.02,-3.99 -5.76,-5.23zm-130.86 3.63c-1.24,1.42 -2.04,3.01 -2.57,4.7l-1.6 3.64 0 -2.04 -5.67 0.53 0.44 16.58 2.66 -0.53c1.24,-0.98 2.84,-1.86 4.61,-2.57l10.46 1.06 1.5 -0.53c0.71,-1.24 1.07,-2.75 1.07,-4.7 -0.98,-1.15 -2.13,-2.13 -3.64,-3.1l-5.23 -1.59c-1.24,-0.44 -2.31,-1.06 -3.1,-2.04l3.63 -3.1c0.89,-1.15 1.42,-2.57 1.59,-4.17 -1.15,-0.97 -2.57,-1.69 -4.17,-2.13zm14.01 1.59l0.53 1.6 1.06 0.53 0.53 -3.19 -1.59 0 -0.53 1.06zm137.69 -0.53l-5.23 4.17c-0.53,0.36 -0.8,0.89 -0.97,1.6l1.5 4.17c2.13,-0.44 3.81,-1.69 5.23,-3.72l0.98 -4.61c-0.18,-0.71 -0.71,-1.24 -1.51,-1.59zm-16.67 5.76l-0.97 3.1 2.04 -0.53c-0.09,-0.89 -0.44,-1.77 -1.06,-2.57zm-122.08 2.57l3.63 4.7c1.15,-0.09 2.39,-0.44 3.63,-1.06l0.53 -2.57 -0.53 -1.06 -7.27 0zm129.89 4.17l0 3.11 4.7 1.59 2.04 -1.06 0.54 -2.57 -0.54 -0.54 -6.74 -0.53zm-19.24 0.53l0 2.04 2.13 -1.06 -2.13 -0.98zm-98.68 2.57l-2.57 1.59c0.09,2.3 0.44,4.7 1.06,7.27l2.04 -0.53 0 -8.33 -0.53 0zm9.93 11.97c-2.3,0.89 -4.52,2.13 -6.83,3.63l-2.57 1.51c0.26,1.24 0.98,2.3 2.13,3.19 2.39,-0.71 4.79,-1.78 7.27,-3.19 0.89,-1.42 1.59,-3.19 2.04,-5.14l-2.04 0zm-22.87 0.53l-2.13 0.44 -0.53 3.19 1.6 0.98 2.04 -3.1c-0.09,-0.71 -0.44,-1.15 -0.98,-1.51zm-14.54 0.98c0.44,1.15 1.24,1.86 2.57,2.13 -0.53,-0.8 -1.42,-1.51 -2.57,-2.13zm167.74 3.63l-1.06 2.13 0.53 1.07 1.59 0.44 0.53 -3.1 -1.59 -0.53zm-18.18 2.66l0 3.11 1.07 -2.57 -1.07 -0.54zm-167.3 3.11l0 2.57 5.76 0 0 -2.57 -5.76 0zm31.21 1.5c-2.04,0.89 -4.17,1.95 -6.21,3.19 -1.33,1.42 -2.93,2.84 -4.7,4.08l-6.74 2.13 -18.17 8.78 -6.3 2.13c0.09,1.6 0.44,3.37 1.06,5.15l28.02 -9.84 11 -6.74c1.33,-1.24 2.75,-2.75 4.08,-4.7l1.06 -3.1 -0.53 -1.07 -2.57 0zm15.6 0l-0.53 3.64c0.27,0.53 0.8,0.89 1.59,1.06l0.44 -2.57 -0.44 -1.06c-0.09,-0.44 -0.44,-0.8 -1.06,-1.07zm138.67 0.54l-2.57 3.1 1.51 1.59 2.13 -3.1c-0.18,-0.71 -0.53,-1.24 -1.06,-1.59zm-21.81 13.56c-0.98,1.69 -1.59,3.63 -2.04,5.67l3.1 1.6 1.51 -6.3 -2.57 -0.98zm43.09 2.57l0.53 3.63c1.15,-0.09 2.39,-0.44 3.63,-1.06 -1.15,-1.15 -2.57,-1.95 -4.17,-2.57zm-14.54 3.63c-1.59,0.8 -3.37,1.78 -5.14,3.11l-11.44 7.27 1.51 3.1 11 -4.61c1.5,-0.89 2.75,-2.3 3.63,-4.17l1.51 -3.19c-0.18,-0.62 -0.53,-1.15 -1.07,-1.51zm-26.95 2.57c0.44,1.68 1.6,2.48 3.64,2.57 -1.06,-0.98 -2.31,-1.86 -3.64,-2.57zm-146.02 7.8l-6.74 3.64c-1.95,1.42 -3.19,3.46 -3.63,6.2l3.1 6.83 2.13 7.71c0.8,0.71 1.86,1.06 3.11,1.06l0.53 -4.17 0 -9.84c0.44,-1.86 1.24,-3.9 2.57,-6.2l1.59 -5.23 -2.66 0zm30.14 4.7c0.18,0.97 0.71,1.77 1.6,2.57 -0.27,-0.98 -0.8,-1.78 -1.6,-2.57zm158.44 0.53l-0.53 5.14 4.7 0 -0.53 -5.14 -3.63 0zm-148.59 9.31c0.35,0.89 1.06,1.42 2.13,1.6 -0.53,-0.71 -1.24,-1.24 -2.13,-1.6zm103.91 0l0 5.23 3.1 -0.53 0 -4.7 -3.1 0zm-119.43 3.11c-0.8,1.86 -1.86,3.54 -3.19,5.23l-7.27 1.07 -0.98 4.61 0.53 1.59 0 2.04 3.63 0.53 6.21 -3.1c1.95,-0.18 4.08,-0.71 6.2,-1.6 -0.18,-2.22 -0.53,-4.61 -0.98,-7.27 -1.15,-1.06 -2.57,-2.13 -4.17,-3.1zm8.24 3.1c0.09,2.39 0.44,4.79 1.07,7.27l2.13 -1.5c0.35,-1.15 0.71,-2.48 0.98,-4.17l-0.53 -1.59 -3.64 0zm-81.57 1.59l3.19 0 -0.53 4.7 -2.66 0.53 0 -5.23zm40.52 5.23l-6.74 4.17 -2.04 5.68 1.51 0.53c2.31,-0.71 4.7,-1.78 7.27,-3.11l1.06 -5.76c-0.18,-0.71 -0.53,-1.15 -1.06,-1.51zm50.44 1.51l-5.76 3.1 -4.61 4.17 -6.83 2.13 3.72 2.57 3.11 1.06 1.5 -0.53 1.6 -1.06c1.42,-0.98 2.83,-2.31 4.17,-4.17 1.95,-0.35 4.08,-0.97 6.21,-2.04l0 -5.23 -3.11 0zm127.23 3.1l0.53 3.63 5.23 -0.53 0 -3.1 -5.76 0zm22.34 2.66l-0.98 2.57 2.04 0c-0.09,-0.89 -0.44,-1.78 -1.06,-2.57zm-186.45 1.51c-0.53,1.86 -0.89,3.9 -1.06,6.3 1.33,0.62 2.84,0.98 4.7,0.98l1.06 -3.63 -0.53 -1.51c-1.24,-0.98 -2.66,-1.69 -4.17,-2.13zm155.87 1.6c-1.06,1.5 -1.78,3.28 -2.13,5.14 1.51,1.06 3.19,1.59 5.23,1.59 0.8,-1.42 1.24,-2.93 1.51,-4.7 -1.42,-0.89 -3.02,-1.51 -4.61,-2.04zm-205.78 2.04c2.3,0.97 4.52,2.22 6.83,3.63 0.97,2.39 1.86,4.96 2.57,7.8l0 19.77c-1.95,-0.98 -3.28,-2.66 -4.17,-5.23l-3.1 -7.27 -2.13 -18.7zm43.62 2.66l0 5.14 -5.14 0.53c-2.04,-0.89 -3.9,-2.22 -5.76,-4.17l-4.08 -0.53 0.44 5.23 -0.98 6.74c0.09,0.35 0.44,0.71 0.98,1.06 2.04,-0.44 4.08,-1.15 6.3,-2.13l4.7 -0.53c0.53,0.89 1.42,1.59 2.57,2.13l2.57 -7.8 1.06 -5.67 -2.66 0zm188.14 0.44l-4.7 6.83 -3.64 7.27 -2.13 8.78 -0.44 6.3 3.63 -0.53c0.44,-2.57 1.33,-5.32 2.57,-8.33l3.1 -7.8 5.23 -5.67c-0.26,-2.66 -1.5,-4.88 -3.63,-6.83zm-141.32 0.53l-2.13 1.06 0.53 4.7 2.13 0.97 7.27 -1.5 -0.53 -4.17c-2.3,-0.44 -4.7,-0.8 -7.27,-1.06zm-12.5 3.1l-4.17 5.76 -1.51 3.63 3.63 -0.53 5.68 0 0 -8.87 -3.64 0zm35.38 4.7l4.61 0 -0.98 2.57 -1.06 1.06 -2.57 -1.06 0 -2.57zm25.98 5.76l0 5.68 4.61 0 0 -0.53 0.53 -4.7 -5.14 -0.44zm-98.24 5.15c-1.59,0.44 -3.01,1.5 -4.17,3.1 -1.24,1.06 -2.13,2.48 -2.57,4.17 1.15,1.06 2.48,1.95 4.17,2.66 1.6,0.62 3.02,1.69 4.17,3.1l0.53 6.74c-1.95,0.54 -3.99,0.89 -6.3,1.07l-0.98 5.67 0 6.74 5.67 1.07 6.21 -1.07 0.53 -4.17 -0.53 -1.51 -0.44 -13.56 -2.66 -11.35c-0.98,-1.15 -2.13,-2.04 -3.64,-2.66zm161.09 0l-0.53 7.8 -0.53 2.13 1.51 0.97 2.66 -0.53 1.06 -6.74c-0.98,-1.42 -2.39,-2.66 -4.17,-3.63zm-97.17 0.53c-1.15,1.69 -2.04,3.54 -2.57,5.67l1.51 1.59 6.74 -1.59 -0.53 -3.55c-1.59,-0.98 -3.37,-1.69 -5.14,-2.13zm-49.39 1.06c0,2.22 1.07,3.99 3.11,5.14l-0.44 -5.14 -2.66 0zm60.82 1.51l-0.53 3.1 1.59 0 0.44 -2.57 -1.51 -0.53zm2.57 8.33c0.8,1.77 2.04,3.28 3.63,4.7 -0.8,-1.77 -1.95,-3.28 -3.63,-4.7zm-95.57 2.13c0.09,1.06 0.62,1.95 1.59,2.57 -0.18,-1.06 -0.71,-1.95 -1.59,-2.57zm48.85 0.98l-9.4 4.17c0.18,1.51 0.71,2.84 1.59,4.17 1.86,-1.15 3.81,-2.48 5.68,-4.17 1.06,-0.44 2.3,-1.15 3.63,-2.04 -0.27,-0.71 -0.71,-1.42 -1.51,-2.13zm31.12 0l0.53 1.59 0.53 -1.59 -1.06 0zm97.7 2.13l0.53 5.14 -1.06 1.6c-0.8,1.59 -1.33,3.37 -1.59,5.14l1.59 8.33 -1.59 1.06c0.26,1.95 0.97,3.9 2.13,5.67 1.24,-0.8 2.22,-2.04 3.1,-3.63l0.54 -8.78 -0.54 -8.86c-0.09,-2.31 -1.15,-4.26 -3.1,-5.68zm-146.46 5.68c0.71,1.24 1.95,1.95 3.63,2.13 -1.06,-0.89 -2.3,-1.59 -3.63,-2.13zm47.79 0.53c-2.39,0.8 -4.79,1.86 -7.27,3.1l-6.83 3.1 -23.31 16.14c-1.07,0.89 -2.13,1.86 -3.11,3.1 0,0.97 0.35,1.86 0.98,2.57 2.39,0.53 4.43,1.77 6.3,3.63l4.17 0.53 0 -4.61 -1.59 -2.13 11.97 -4.7 4.61 -5.14 11.97 -7.8 5.23 -4.7 1.51 -3.1 -4.61 0zm19.68 1.06l-0.97 8.24 2.04 0 0.54 -4.08c-0.36,-1.51 -0.89,-2.93 -1.6,-4.17zm-79.97 1.51l1.51 2.13 -3.1 0.98c0.27,-0.89 0.8,-1.95 1.59,-3.1zm168.81 1.59c0.53,1.33 1.59,2.39 3.1,3.1 0,-1.69 -0.98,-2.75 -3.1,-3.1zm-157.37 13.48c0.89,1.42 2.22,2.48 4.17,3.1 -0.62,-1.69 -2.04,-2.75 -4.17,-3.1zm67.56 0.53l0 5.76 3.63 -0.53 0 -5.23 -3.63 0zm-21.37 11.97c-1.77,0.71 -3.55,1.69 -5.14,3.11l0 2.57 3.1 0.53 1.07 -0.53c1.59,-0.62 3.19,-1.6 4.61,-3.11 -0.89,-1.15 -2.13,-1.95 -3.64,-2.57zm62.33 0l-0.98 1.51 0.98 3.63 3.19 -0.44 1.51 -4.17 -4.7 -0.53zm-39.99 10.91c0.09,1.42 0.62,2.57 1.6,3.64l-1.6 -3.64z"/>
  <path id="_1" class="fil2" d="M7677.96 1047.25l16.58 0 6.74 0.97c1.95,0.27 3.55,1.42 4.79,3.37l1.42 1.95 2.48 -2.39 10.11 -1.42 1.06 3.37c-0.09,2.22 -0.44,4.61 -1.06,7.27l0.53 6.74c0.27,1.86 0.89,3.81 1.95,5.85l1.42 3.37 -2.48 0.89 -0.89 3.9 2.48 -0.53c1.59,-0.89 2.57,-2.48 2.83,-4.79l-1.42 -22.25c1.77,0.18 3.55,0.71 5.32,1.51l2.84 5.32 4.43 3.37 17.82 -2.83 0.53 2.3 -1.95 1.07c0.09,1.06 0.35,2.22 0.98,3.37l4.34 -3.01c1.59,0.89 3.1,2.13 4.35,3.9l-3.37 3.37c0.89,1.42 2.04,2.84 3.37,4.43l1.5 2.84 3.37 -0.53c0.89,-1.07 1.42,-2.31 1.42,-3.72 -1.77,-0.98 -3.54,-1.59 -5.32,-1.95l0 -3.01c1.24,0.35 2.75,0.89 4.43,1.59l5.68 1.95 13.65 10.46 7.09 9.22 10.64 21.28 3.9 12.15 1.95 14.01 0 8.16 -2.84 16.49 -4.43 -0.53 -15.43 0.53 -5.85 -2.3 -4.79 0.35 0 -2.84c-0.35,-1.86 -0.97,-3.81 -1.95,-5.85l-3.37 -0.53 -0.89 3.02 -2.48 0.89 -1.95 -2.84 -0.98 -4.43c0.71,-0.09 1.42,-0.35 2.04,-0.89 -0.26,-1.51 -0.97,-2.39 -2.04,-2.84l-3.37 4.79c-0.89,1.69 -1.6,3.64 -1.95,5.85 -0.09,1.95 -1.06,3.37 -2.93,4.26 -0.18,-1.78 -1.15,-3.37 -2.84,-4.79l-6.83 1.42 -4.34 3.37 -6.3 -1.95 -4.79 -0.53 -1.42 1.06 -4.96 0.54 0 -2.48 4.96 -2.48 7.27 -0.89 0.89 -2.83 -2.83 -0.54 -7.27 0.54c-1.69,-0.18 -3.28,-0.71 -4.79,-1.6l-3.9 -4.79 -3.37 -12.59c-0.8,-1.5 -1.78,-3.1 -3.02,-4.79 -0.89,-1.42 -1.95,-2.83 -3.37,-4.34l-5.32 -2.93 -6.2 -1.95 -7.27 -0.44c-1.95,-0.44 -3.72,-1.42 -5.32,-2.93 -1.86,-0.62 -3.81,-0.98 -5.85,-0.98l-12.5 3.37c-0.71,-1.95 -2.04,-3.46 -3.9,-4.35 -1.77,0.8 -2.83,2.48 -3.01,4.88 -1.07,1.59 -2.84,2.57 -5.14,2.93l-11.7 1.42 0 -3.37 4.79 -2.93c-0.98,-1.24 -2.22,-2.57 -3.72,-3.9 -1.69,-0.8 -2.66,-2.3 -3.02,-4.34 -1.06,1.24 -2.3,2.57 -3.9,3.9l-3.37 0.44 -0.89 -0.44 -0.53 -4.88c-1.33,0.18 -2.66,0.71 -3.9,1.42l-6.74 0.53 -1.95 2.93c0.44,0.44 1.06,0.8 1.95,0.97l4.88 0 0.44 2.84c0.71,1.59 1.15,3.37 1.42,5.41l-0.44 5.32 -14.98 3.81 -5.41 0.44 -1.42 -0.89c-1.15,-1.24 -2.3,-2.75 -3.37,-4.43l-0.89 -5.32 0.89 -1.42c1.68,-0.62 3.28,-1.59 4.79,-2.93 0.53,-1.95 1.42,-3.9 2.48,-5.76 1.95,-0.53 3.02,-1.86 3.37,-3.9 -1.59,-0.71 -2.75,-1.95 -3.37,-3.81l1.42 -3.37 -1.95 -1.59 -2.84 -4.79c-1.15,-1.24 -2.83,-2.22 -4.79,-2.84 0.09,-1.86 0.53,-3.63 1.42,-5.32l6.74 -1.42c0.62,-0.27 0.98,-0.71 0.98,-1.42l-0.98 -3.55c1.24,-1.15 2.66,-2.31 4.35,-3.37l13.12 -7.09 1.42 2.31c0.8,-1.15 1.51,-2.39 1.95,-3.9 1.15,-1.42 2.75,-2.66 4.79,-3.81l4.96 -2.93 11 -4.79 12.59 -3.46 7.27 -0.44c1.51,-1.07 2.93,-2.39 4.26,-3.9zm36.44 9.22l-0.53 1.95 1.95 -0.53c-0.26,-0.71 -0.8,-1.15 -1.42,-1.42zm-33.96 0.98l0.53 8.24c0.71,1.59 1.69,3.19 2.83,4.79l0 -8.69c-0.62,-1.59 -1.77,-3.02 -3.37,-4.34zm22.25 5.76l1.06 1.95c-0.09,-0.71 -0.44,-1.33 -1.06,-1.95zm-34.84 1.07c0.18,1.68 0.71,3.46 1.42,5.32l1.6 1.42 3.72 -1.06 1.51 -3.72 -1.51 -1.59 -6.74 -0.35zm-19.33 4.79l0.53 1.42c0.71,-0.62 1.33,-1.42 1.95,-2.31l-1.95 0 -0.53 0.89zm60.02 1.42l-12.59 6.38c-2.13,0.8 -4.52,1.42 -7.27,1.78 -2.3,0.35 -4.08,1.69 -5.32,3.9l-5.41 4.43c-2.04,0.8 -3.9,1.86 -5.67,3.37l-5.32 3.37 -1.42 4.79 0.89 1.95c2.04,-0.71 4.08,-1.6 6.2,-2.84 2.04,-0.98 3.99,-2.04 5.85,-3.37 1.86,-1.15 3.64,-2.39 5.32,-3.9l11.62 -6.74c1.77,-0.98 3.54,-2.31 5.32,-3.9l5.85 -3.37 1.95 -0.53 0.54 -3.9 0 -1.42 -0.54 0zm40.61 1.06l-2.48 0.89 0.53 3.9 2.39 0c0.89,-1.51 1.59,-3.1 1.95,-4.79l-2.4 0zm-36.35 1.95c0.98,0.62 2.13,1.15 3.55,1.42 -0.98,-0.71 -2.13,-1.24 -3.55,-1.42zm22.7 0l0 7.09 2.48 -0.89 2.48 -4.43c-1.51,-0.89 -3.11,-1.51 -4.97,-1.77zm-77.75 8.69l0.53 2.83 2.3 -0.53 1.07 -3.37 -3.02 0 -0.89 1.07zm102.49 0c-0.44,0.44 -0.8,0.97 -0.97,1.77 0.53,1.15 1.42,2.13 2.48,3.02l0.98 -4.79 -2.48 0zm-10.64 2.3c0.44,1.86 1.15,3.63 1.95,5.32 1.33,0.8 3.01,1.24 4.87,1.42l0 -4.26 -1.95 -0.54c-1.42,-0.89 -3.11,-1.5 -4.88,-1.95zm-121.82 1.06l-0.53 5.32 3.37 9.04c0.26,1.15 0.89,2.13 1.95,3.02 0.71,-1.69 1.15,-3.46 1.51,-5.32l-2.39 -3.9 0 -6.2c-1.15,-0.98 -2.48,-1.6 -3.9,-1.95zm149.83 1.42c-0.62,2.39 -1.86,4.7 -3.72,6.74l-5.85 -0.53 -0.98 2.48 -0.53 5.32c0.89,-0.27 1.69,-0.71 2.39,-1.42 1.51,-0.97 3.28,-1.59 5.32,-1.95 0.26,2.39 1.42,4.7 3.37,6.74 1.42,-2.04 2.22,-4.52 2.48,-7.27 1.77,-1.33 2.75,-3.28 2.83,-5.85 -0.8,-2.4 -2.57,-3.81 -5.32,-4.26zm-37.15 0.53l0.44 3.37 3.81 -0.53 0.54 -2.83 -4.79 0zm-129.18 1.42l0 4.79 4.35 -1.06 0.98 -3.37 -5.32 -0.35zm25.71 0l0 6.74 2.31 0 0 -6.74 -2.31 0zm19.33 7.27l0 2.83 2.31 0.53 0.53 -0.53 0.53 -2.83 -3.37 0zm72.08 0.35l-1.06 3.37 0.53 1.07 0.53 1.42 3.37 -0.53 0.89 -5.32 -4.26 0zm-47.43 1.06l-0.53 8.16 0.53 4.43 2.39 -1.06 1.42 -7.27c-0.35,-2.22 -1.59,-3.63 -3.81,-4.26zm-40.07 0.35l-1.06 3.9 0 1.42 1.06 -0.35 0.89 -3.9 -0.89 -1.06zm-34.49 3.55l1.51 1.77 -1.86 1.6 0.35 -3.37zm49.38 3.37c-1.59,0.53 -3.01,1.33 -4.26,2.3 0.09,1.15 0.53,2.13 1.42,3.02l4.26 -1.95 0.53 -3.37 -1.95 0zm-52.22 2.3l3.37 4.88 0.53 3.46 -2.48 0.89 -0.89 -0.44 -3.9 -0.44 0.54 -2.93 2.83 -5.41zm91.41 1.95l0.44 5.85 2.93 -0.98c-0.09,-2.22 -1.24,-3.81 -3.37,-4.87zm80.86 1.06l1.42 -0.53 -1.95 -0.53 0.53 1.06zm-14.63 -0.53l0 3.9 3.46 0.44c-0.09,-2.13 -1.24,-3.55 -3.46,-4.34zm-106.83 3.9l0 3.37 2.48 -0.97c-0.54,-0.98 -1.33,-1.78 -2.48,-2.4zm120.93 1.42l-1.42 3.9 2.31 0 1.06 -2.93c-0.53,-0.44 -1.24,-0.8 -1.95,-0.98zm-137.43 1.42c1.95,0 3.9,0.53 5.85,1.51l-0.89 6.74 -5.41 0.54 0 -2.48 0.44 -6.3zm86.09 2.93l-0.89 3.37 1.42 -0.44 0.89 -2.39 -1.42 -0.53zm19.86 0c0,0.62 0.35,1.15 0.89,1.42 -0.09,-0.62 -0.35,-1.07 -0.89,-1.42zm-135.47 3.9c0.35,1.42 1.24,2.75 2.48,3.9l0.44 -3.9 -2.93 0zm62.86 0.44c-0.35,2.22 -0.98,4.26 -1.95,6.3 -0.71,2.57 -2.3,4.52 -4.79,5.85l-1.42 -2.84c0.26,-1.69 0.71,-3.46 1.42,-5.41 1.95,-1.24 4.17,-2.57 6.74,-3.9zm101.6 0.97l-0.53 3.37 1.95 -0.44c0,-1.15 -0.44,-2.13 -1.42,-2.93zm-176.52 2.93c1.59,0.89 2.39,2.3 2.48,4.34 -1.69,-0.98 -2.48,-2.39 -2.48,-4.34zm57.54 0.97l2.48 0c-0.35,0.98 -0.97,1.86 -1.95,2.39l-3.37 3.46c-0.62,-0.8 -0.98,-1.78 -1.06,-3.02l3.9 -2.84zm-14.01 2.39l2.48 0c-0.09,1.51 -0.62,2.93 -1.42,4.35l-1.95 -2.84 0.89 -1.51zm-23.23 6.3l6.83 0 1.42 0.53c1.59,1.42 2.57,3.37 2.93,5.85l0.44 3.72c-0.09,1.33 -0.35,2.57 -0.98,3.9l-3.37 4.79c-1.77,-0.09 -3.55,-0.35 -5.32,-0.89l-0.98 1.42 -0.53 3.9 -3.37 -1.06 -7.62 -0.35c-0.53,1.06 -0.89,2.31 -1.06,3.9l2.48 0.89 2.84 0.53 -0.53 4.79 -0.89 1.95 1.42 4.26 0.53 6.38 -0.53 1.42c-2.22,0.35 -4.79,0.54 -7.8,0.54l-0.35 8.15 -3.02 0.98 -1.77 -3.37 -8.33 0c-2.22,-0.35 -3.81,-1.59 -4.79,-3.81l0.53 -5.32 8.16 0 1.42 1.86 3.37 0.97 1.06 -0.44 -0.53 -1.95c-1.06,-1.77 -2.31,-3.37 -3.9,-4.87 0.8,-1.95 1.95,-3.72 3.37,-5.32 1.24,-1.24 2.04,-2.84 2.48,-4.79l-6.74 -1.42c-1.86,-0.89 -3.63,-1.95 -5.32,-3.37l-1.06 -3.37 3.01 -1.6c-0.44,-2.04 -1.24,-4.17 -2.48,-6.2 1.24,-1.51 2.3,-3.28 3.37,-5.32l4.79 -0.53 1.6 1.06c1.15,1.15 2.57,2.13 4.26,2.84l1.95 -6.74 7.27 -1.42 5.76 -2.48zm33.33 0.53c0.98,2.13 2.75,3.46 5.32,3.9 -0.26,1.86 -0.89,3.81 -1.95,5.67l-3.72 5.32c-0.62,1.06 -0.98,2.3 -1.06,3.9l2.48 -0.54c1.86,-0.71 3.99,-1.59 6.21,-2.83l3.37 -5.32c0.8,-2.04 1.78,-4.08 3.02,-6.21 2.48,0.35 3.72,2.13 3.72,5.32 0.44,2.22 1.15,4.61 1.95,7.09l1.95 6.92c0.8,2.04 2.3,3.63 4.43,4.79l4.79 4.26 2.48 6.91c0.44,2.13 1.24,4.17 2.39,6.2 1.69,-0.53 3.64,-1.42 5.76,-2.39l12.68 5.76 11 7.36 5.85 2.84 26.6 18.8 4.35 4.43c1.86,1.06 3.99,1.95 6.29,2.84 1.86,1.15 3.64,2.39 5.32,3.9 1.59,1.42 3.01,3.01 4.34,4.79 0.09,2.57 0.53,5.14 1.42,7.8 1.86,-0.44 3.64,-1.24 5.32,-2.48l6.38 3.01 8.16 10.11c1.33,1.69 2.75,3.28 4.43,4.87l4.26 4.79 2.48 6.74c0.98,1.77 2.04,3.55 3.37,5.32l9.67 17.91 1.42 7.27c-0.35,1.5 -0.98,2.93 -1.86,4.43 0,0.71 0.35,1.33 0.89,1.95 0.62,2.13 1.15,4.7 1.42,7.63l0 7.8 0.53 0.89 0.97 6.38 -1.5 0.44 -4.79 -0.44 -0.53 3.37c2.13,0.53 4.35,0.89 6.83,0.98l0 2.83 -6.3 0.53c-2.21,-0.26 -3.54,-1.69 -3.9,-4.34 -0.09,-2.22 -0.98,-4.35 -2.84,-6.3 -1.06,1.77 -1.86,3.72 -2.48,5.76 0.71,2.04 1.86,3.99 3.37,5.85l1.06 1.42 -1.42 8.78c0.89,-0.98 1.51,-2.13 1.78,-3.37l0.53 -1.95 5.32 1.42c0.62,2.04 1.95,3.81 3.9,5.32l-1.42 6.74 0.44 6.74 -1.42 0.53c-1.6,1.33 -2.75,3.28 -3.46,5.85l-1.95 7.27c-0.18,2.04 -1.06,3.99 -2.84,5.67 -1.15,1.95 -2.04,4.08 -2.83,6.39 -1.07,1.69 -2.31,3.46 -3.9,5.32l-4.79 3.81 -12.59 15.07 -4.79 4.26 -30.06 15.6 -27.66 6.74 -1.42 -0.54 -16.84 0.89c-2.04,0 -4.08,-0.27 -6.3,-0.89l-14.01 -0.89 -1.6 0.35 -16.31 0.53 -0.54 -2.48c-0.53,-1.86 -1.59,-3.63 -3.37,-5.32 -2.31,0 -5.06,-0.27 -8.16,-0.89l-20.83 -6.21 -6.3 -3.02 -16.4 -10.64 -4.96 -4.34 -3.72 -5.32 -3.02 -6.29c-1.15,-1.69 -2.75,-3.11 -4.79,-4.35l-2.84 -6.38c-0.71,-0.8 -1.24,-1.95 -1.59,-3.37l1.95 -1.95 -3.72 -5.32 -2.48 -6.74c1.78,-0.89 3.55,-2.13 5.32,-3.72l6.21 0.35 1.06 -1.42c1.77,-0.09 3.55,-0.89 5.32,-2.48l-6.38 -0.35 -1.42 0.35 -14.54 0.53 0 -3.37 3.37 -3.37c-2.39,-0.18 -3.63,-1.78 -3.72,-4.79l-1.59 -7.8 -1.42 -34.84c2.31,-0.71 4.79,-1.15 7.27,-1.42l1.95 6.74c0.44,2.13 1.6,3.9 3.37,5.32l1.42 -1.95 -1.42 -8.16 5.32 0c2.48,0.09 3.99,1.42 4.43,3.9l-1.95 3.37 1.42 1.95 1.95 0.35 0 5.32 -1.95 0 0 7.27 -0.53 1.06 3.02 6.3 1.42 7.71c-0.18,2.13 -1.51,3.55 -3.9,4.35 -1.95,0.62 -3.81,1.5 -5.85,2.83 1.95,1.51 4.17,2.31 6.74,2.48 2.04,-0.44 3.81,-1.42 5.32,-2.84l0.53 1.95 -0.53 4.79 0 0.89 0.53 0 1.42 7.27 3.37 5.85c1.95,-0.98 3.9,-2.04 5.85,-3.37 2.04,0.09 3.99,0.89 5.85,2.31l0.89 3.01 -4.26 0.89 -6.39 3.02 -2.83 3.72 7.27 -1.95c1.69,-0.53 3.55,-0.89 5.76,-0.89 1.77,-0.89 3.55,-2.13 5.32,-3.9l2.93 -5.67c2.13,-0.98 3.19,-2.66 3.37,-4.96 -0.44,-1.33 -1.15,-2.57 -1.95,-3.9l1.5 -1.77c1.51,-1.42 3.28,-2.75 5.32,-3.9l7.8 -1.42c2.22,-0.18 3.9,-1.33 5.15,-3.37l1.59 -0.53 3.37 0.53 10.11 0c0.71,-0.18 1.15,-0.53 1.42,-1.06 -1.15,-1.95 -2.93,-3.02 -5.32,-3.37 -2.48,0 -5.23,0.26 -8.16,0.89l-6.74 0 -1.42 -0.89 -3.01 -6.3c-2.04,0.44 -3.46,1.69 -4.26,3.81 -1.95,1.42 -4.35,2.31 -7.36,2.48l-6.74 0 -1.42 -0.98c0.89,-2.22 1.33,-4.79 1.42,-7.71 -0.8,-2.13 -1.51,-4.34 -1.95,-6.83 0.53,-2.31 2.13,-3.9 4.87,-4.79l3.37 0 0 -5.32c1.06,-0.44 2.39,-0.8 3.9,-1.07l-1.51 -2.3 -3.37 -1.06 0.98 -4.26c1.86,-0.98 3.63,-2.22 5.32,-3.9 0.98,-0.98 2.31,-1.59 3.9,-1.95l0.44 2.84 2.93 6.39c1.69,1.15 3.63,2.13 5.85,2.83l0.89 -3.37 -2.48 -1.42 -1.78 -0.53 0 -6.2 7.09 -2.48 8.69 0c2.39,0.27 4.79,1.06 7.27,2.48l2.48 42.47 4.26 4.96 10.73 7.62 6.3 2.48 8.24 0.89 7.71 -0.89 6.83 -2.48 5.32 -3.37c1.15,-1.78 2.3,-3.72 3.37,-5.85l1.95 -7.18 0.89 -8.24 -0.89 -7.71 -3.02 -6.39 -11.53 -15.43 -10.19 -8.16 -6.3 -3.02 -5.32 -3.37 -6.3 -2.84 -5.32 -3.9 -6.21 -2.84c-1.86,-1.06 -3.63,-2.39 -5.32,-3.9l-1.95 -4.79 11.52 0 2.48 -0.54 -1.95 -3.9 -6.38 -0.44 -8.16 2.93 -4.79 0.89 0.53 -3.37c1.51,-1.24 3.1,-2.66 4.79,-4.35 2.31,-0.62 4.79,-1.15 7.27,-1.42l5.32 0c-0.09,-0.8 -0.44,-1.69 -1.06,-2.48l-8.69 -0.44c-2.04,0.53 -4.17,1.59 -6.21,2.93 -0.97,1.42 -2.3,2.66 -3.9,3.81 -2.04,-0.8 -3.9,-1.95 -5.85,-3.37l-4.26 -4.79 -1.95 -0.53 -0.53 -3.81 3.9 -2.48 -1.42 -3.9 -1.06 -4.79 1.59 -1.95c-0.35,-2.04 -1.06,-4.35 -1.95,-6.74 -0.71,-1.06 -1.77,-1.86 -3.02,-2.48l-0.89 7.27 -2.93 -1.95 0.44 -7.27 0 -1.42c1.5,-0.71 3.1,-1.59 4.79,-2.83 1.15,-1.78 2.39,-3.55 3.9,-5.32 0.98,-1.59 1.42,-3.37 1.42,-5.32 -2.13,-0.26 -3.9,-1.42 -5.32,-3.37 1.24,-1.86 2.66,-3.46 4.43,-4.87l4.26 -1.51c0.18,0.8 0.53,1.59 1.06,2.48 1.86,1.06 3.99,1.95 6.2,2.48 0.8,0.27 1.33,0.98 1.6,1.95 -0.98,0.26 -1.78,0.89 -2.48,1.77l0.89 3.9 2.48 -0.89c0.97,-1.95 2.22,-3.9 3.9,-5.85l7.27 1.42c2.04,0.89 4.17,1.95 6.21,3.37l3.37 -0.89 2.48 1.95 3.37 0 0.44 -3.37 -0.44 -1.06 -13.48 -4.26 -5.32 -3.9 -8.33 -0.98 -3.37 0 0 -3.46 2.48 0c2.22,-0.09 4.79,-0.62 7.63,-1.42 1.69,-1.24 3.28,-2.66 4.96,-4.34l0.35 -1.95 -0.89 0 -12.06 1.95c-2.39,-0.09 -4.7,-0.89 -6.74,-2.39 -2.13,-0.98 -4.35,-1.77 -6.74,-2.39l-5.41 0 1.51 -11.7 0 -6.74 -1.07 -1.42c-0.71,-0.89 -1.33,-1.95 -1.95,-3.37l3.02 -1.06c1.59,-0.98 3.01,-2.48 4.25,-4.26l-6.74 0 -0.53 1.42 -0.89 -4.79c0.71,-0.27 1.59,-0.71 2.39,-1.42l3.81 -5.32c0.98,-1.86 2.04,-3.63 3.37,-5.32l5.32 -3.9zm122.35 1.42c0.71,1.33 1.69,2.66 3.02,3.9l-0.53 3.9 1.42 0.35 0.53 -6.2 0 -1.95 -4.43 0zm-177.94 0.53c1.42,0.35 2.66,0.98 3.9,1.95 -1.15,0.18 -2.39,0.27 -3.9,0.35l0 -2.3zm132.46 5.32c1.06,1.51 2.57,2.3 4.43,2.3 -0.98,-1.5 -2.4,-2.3 -4.43,-2.3zm-117.92 4.79l-0.53 3.37 1.95 -0.53c0,-1.15 -0.44,-2.04 -1.42,-2.84zm135.83 2.84c-0.97,0.71 -1.95,1.69 -2.83,3.01 1.06,0.62 2.39,0.89 3.9,0.89 1.69,-0.62 2.57,-1.86 2.83,-3.9l-3.9 0zm52.22 1.06c-0.62,0.35 -1.33,0.98 -1.95,1.95l2.48 0.35 0 -1.95 -0.53 -0.35zm-133.35 5.32c-2.31,0.35 -4.08,1.59 -5.32,3.9l7.63 -1.59c-0.44,-0.98 -1.15,-1.78 -2.31,-2.31zm-63.93 0.35c0.62,0.8 1.42,1.33 2.48,1.6 -0.62,-0.8 -1.42,-1.33 -2.48,-1.6zm15.52 1.95l6.3 0c1.86,0.09 2.93,1.06 3.37,3.01l0.44 5.68c-0.36,1.5 -1.15,2.83 -2.4,3.9l-4.34 1.42 -1.51 -4.26 0.53 -3.9 0 -1.42 -0.53 0c-0.71,-1.33 -1.42,-2.75 -1.86,-4.43zm-31.47 4.43c1.69,1.06 3.28,2.3 4.79,3.9l1.95 4.26c-0.09,0.71 -0.35,1.42 -0.89,1.95l-5.85 1.06 0 -11.17zm60.02 2.3c0.89,1.15 1.95,1.95 3.37,2.48 -0.35,-1.51 -1.5,-2.39 -3.37,-2.48zm18.8 3.55c-0.89,1.06 -1.6,2.3 -2.31,3.72l2.84 1.06c1.24,-1.06 1.86,-2.57 1.95,-4.43l-2.48 -0.35zm-18.26 4.79l-0.53 2.84 3.37 -0.44c-0.26,-1.51 -1.24,-2.31 -2.83,-2.39zm17.73 2.84c-0.62,1.68 -0.89,3.63 -0.89,5.85l3.37 0c0.44,-0.27 0.8,-0.71 1.06,-1.42l-0.53 -4.43 -3.01 0zm-32.28 2.93l1.42 3.9c-0.27,0.62 -0.8,1.15 -1.42,1.42l-1.5 -3.81 1.5 -1.51zm42.56 2.39l-1.06 2.93 1.95 -0.44c-0.09,-0.8 -0.35,-1.69 -0.89,-2.48zm-34.84 3.46l11.08 3.81 -1.42 1.51 -7.27 1.42 -2.39 0 0 -6.74zm-29.97 0.44l2.84 0 0.53 1.5 -0.53 3.37c-0.8,1.6 -1.95,3.19 -3.37,4.79 -1.59,-1.06 -2.57,-2.66 -2.84,-4.79 1.86,-0.8 2.93,-2.39 3.37,-4.87zm89.9 4.87c0.27,0.8 0.89,1.51 1.95,1.95 -0.26,-0.89 -0.97,-1.6 -1.95,-1.95zm-18.89 3.37c0.18,0.62 0.53,1.06 1.07,1.42l-1.07 -1.42zm25.62 9.22c0.36,0.44 0.89,0.71 1.51,0.89l-1.51 -0.89zm-14.98 5.85l0.53 4.79 1.95 -0.53c-0.35,-1.59 -1.15,-3.01 -2.48,-4.26zm21.37 1.42l-3.37 0.89c0,0.89 0.27,1.69 0.89,2.48 1.95,0.09 3.72,0.89 5.32,2.48l1.42 0.35 1.06 -0.35 -5.32 -5.85zm-84.67 4.26l3.37 0 0 3.37 -3.37 0 0 -3.37zm51.24 0.53l0 4.43 3.37 0c-0.53,-1.78 -1.69,-3.19 -3.37,-4.43zm-30.85 2.48l0.35 4.26 3.9 -1.42 1.06 -2.84 -5.32 0zm8.16 2.31l0.53 5.85 5.32 -0.53c-1.06,-2.48 -3.01,-4.26 -5.85,-5.32zm89.9 1.06c-0.89,2.3 -1.42,5.06 -1.51,8.16l1.51 21.81c0.89,-0.18 1.95,-0.54 2.93,-0.98l-0.53 -9.22c0.09,-2.31 0.44,-5.06 1.06,-8.24l1.42 -2.31 -1.95 -3.55 -0.53 -5.67 -2.39 0zm-79.26 2.84l0.53 2.48c0.98,-0.53 1.69,-1.33 2.31,-2.48l-2.84 0zm95.22 5.32l0 4.79 4.43 -0.35c-0.71,-2.04 -2.22,-3.55 -4.43,-4.43zm-64.81 4.43c-0.98,0.71 -1.78,1.69 -2.39,2.83 1.06,0.62 2.39,1.07 3.9,1.42l1.86 0c-0.62,-1.6 -1.77,-3.02 -3.37,-4.26zm-46.9 0.35l0 2.48 3.01 -0.53c-0.71,-0.8 -1.69,-1.51 -3.01,-1.95zm110.74 0c-1.6,0.98 -2.75,2.66 -3.37,4.96 -0.62,1.59 -1.33,3.46 -1.95,5.67l-0.89 6.83 1.86 5.32c1.51,-0.18 3.02,-0.71 4.35,-1.42l0.97 -19.86c-0.09,-0.62 -0.44,-1.15 -0.97,-1.51zm-99.04 0.53c0.62,0.89 1.51,1.33 2.84,1.42 -0.89,-0.62 -1.78,-1.15 -2.84,-1.42zm68.54 1.42l0 3.37c0.98,-0.8 1.59,-1.95 1.95,-3.37l-1.95 0zm-55.59 1.06c0.53,1.07 1.33,1.86 2.48,2.31l0.44 -2.31 -2.93 0zm-12.06 8.69c1.42,0.98 3.02,1.6 4.79,1.95l4.96 0.89 0.35 -2.39 -10.11 -0.44zm108.34 0l0 6.3 1.42 0.44 -0.44 3.9 2.39 0.44 0.53 -0.44 0.53 -7.27c-0.62,-1.95 -2.13,-3.1 -4.43,-3.37zm-20.3 12.59c-0.44,2.93 -1.86,5.23 -4.43,7.18l-3.37 0.53 -15.96 -2.83 -8.16 0 -1.95 0.89 -3.9 2.93 1.06 2.93 11 0c3.19,0 6.65,0.44 10.28,1.42l10.11 0.97c2.75,0.35 5.5,1.51 8.16,3.46 1.42,2.22 2.39,4.96 2.93,8.15 0.71,2.57 2.57,4.52 5.32,5.85l3.37 0.35c-0.53,-1.42 -1.33,-2.93 -2.39,-4.26 -1.15,-2.22 -2.3,-4.96 -3.37,-8.33 0.89,-0.53 1.69,-1.33 2.39,-2.31l-0.44 -5.85c-2.31,-1.86 -3.63,-4.26 -3.9,-7.27 -1.86,-1.6 -4.08,-2.84 -6.74,-3.81zm25.09 1.86c0.71,1.24 1.77,2.31 3.37,3.02 -0.35,-1.6 -1.51,-2.57 -3.37,-3.02zm-89.9 5.85l2.39 10.64c1.42,-0.44 2.93,-1.06 4.34,-1.95l1.51 -2.39 -2.93 -2.39c-1.6,-1.51 -3.37,-2.83 -5.32,-3.9zm101.07 2.84c0.89,0.62 1.77,0.98 2.84,1.06l-2.84 -1.06zm-80.77 5.32l-0.54 3.02 3.9 0c-0.8,-1.15 -1.95,-2.13 -3.37,-3.02zm30.5 3.02l-0.53 2.84 5.32 1.06 0 -3.55 -4.79 -0.35zm46.37 0.35c-1.59,2.66 -3.99,4.34 -7.27,4.96l-4.26 1.95 0.44 4.79 1.51 4.79 4.79 -0.53c2.31,-0.98 4.26,-2.84 5.85,-5.32 1.24,2.39 3.37,4.17 6.21,5.32l5.32 0 -2.48 -2.84c-2.3,-1.59 -4.08,-3.81 -5.32,-6.74l-0.89 -5.85c-1.06,-0.26 -2.3,-0.44 -3.9,-0.53zm17.38 3.02l-0.35 2.3c0.26,0.62 0.71,0.98 1.42,1.06l0.35 -2.83 -1.42 -0.53zm1.95 6.74c-1.06,1.24 -1.86,2.66 -2.3,4.26 0.8,1.33 1.86,2.48 3.37,3.55 1.24,-1.06 1.86,-2.48 1.95,-4.43 -0.62,-1.42 -1.59,-2.48 -3.02,-3.37zm-60.37 5.85c-1.24,0.98 -2.22,2.22 -3.02,3.72l2.48 0c1.07,-0.97 1.86,-2.3 2.48,-3.72l-1.95 0zm13.48 2.31l0.97 4.96 3.37 0.35 0.98 -0.35c-0.71,-2.39 -2.48,-4.08 -5.32,-4.96zm30.59 1.06l-1.6 3.9 -4.25 -2.48 -2.84 0c0.35,1.95 1.33,3.9 2.84,5.85 2.3,-0.53 5.23,-0.89 8.69,-1.06l0.89 -4.26c-1.07,-0.71 -2.31,-1.33 -3.72,-1.95zm-184.33 1.42c2.04,0.09 3.64,1.07 4.79,2.84l0 14.54 0.53 4.35 -1.42 0.98c-1.15,-1.42 -1.95,-3.19 -2.48,-5.32l-2.84 -4.34 1.42 -13.04zm166.86 0.89l-3.9 2.48c0.26,0.71 0.8,1.15 1.5,1.42l3.37 0c0,-1.24 -0.35,-2.57 -0.98,-3.9zm-155.33 1.06l5.32 0 0 9.22 -2.83 3.81 1.42 5.76c-1.06,1.24 -2.57,1.86 -4.35,1.95l-0.44 -7.27 0.89 -13.48zm134.94 0.53l0.53 2.31c0.98,-0.62 1.77,-1.33 2.39,-2.31l-2.93 0zm64.28 0l-2.31 0.35c0.89,0.71 2.04,1.15 3.37,1.42l0.53 -1.77 -1.59 0zm-12.06 0.89l0 2.84c0.8,-0.62 1.42,-1.59 1.95,-2.84l-1.95 0zm-42.47 1.95l-2.93 1.95c0.18,1.59 0.62,3.02 1.42,4.26l1.95 -0.35 0 -4.43 0.53 -1.42 -0.98 0zm16.4 3.37l0 5.85 3.02 -1.07 0.89 -4.79 -3.9 0zm15.43 2.48l-4.26 2.3 0.53 4.88c1.69,0.44 3.63,0.8 5.67,0.98l1.42 -2.84 5.85 -3.46c-2.66,-0.8 -5.76,-1.42 -9.22,-1.86zm-149.84 4.26l3.9 9.22c0.8,0.98 1.95,1.59 3.37,1.95l2.31 -1.42 0.53 1.86c0.8,-0.53 1.24,-1.33 1.42,-2.39l-1.42 -0.98 -3.37 -2.93 -2.84 -3.37c-1.15,-0.62 -2.48,-1.33 -3.9,-1.95zm166.86 0l0 1.06 0.89 -0.53 -0.89 -0.53zm-50.36 1.42l0.53 4.88c0.8,0 1.78,-0.35 2.84,-0.98 0,-1.95 -1.15,-3.28 -3.37,-3.9zm-169.78 3.02c-0.18,2.3 -0.62,4.61 -1.42,7.18l-2.84 5.85 -0.53 3.37 3.37 1.06 3.9 4.79 2.48 0.89 0.89 -12.5 -0.89 -7.27c-1.06,-1.86 -2.66,-3.02 -4.96,-3.37zm42.65 1.86l0.44 6.3 0.53 1.51 -0.53 3.9 -1.42 2.31 1.42 0.53 4.34 -1.95c0.62,-1.51 0.98,-3.11 0.98,-4.79l-3.81 -2.48c0.89,-1.06 1.78,-2.31 2.4,-3.81l-4.35 -1.51zm27.13 1.51l0.89 3.81 2.48 -0.89 0.35 -2.93 -3.72 0zm137.78 0c0.97,1.69 2.39,3.1 4.26,4.34l0 -4.34 -4.26 0zm-57.19 2.39c0.18,1.77 1.24,3.1 3.02,3.9l0.53 -3.9 -3.55 0zm-125.72 0.53l5.85 0.89 1.42 0.98 -0.89 3.46 -3.37 0.89 -1.51 -0.89 -1.5 -5.32zm34.49 2.83l-1.42 5.32 3.72 -0.44c0.71,-0.89 1.15,-1.95 1.42,-2.93l-3.72 -1.95zm134.41 17.38c0.8,1.69 1.86,3.1 3.37,4.43 -0.71,-1.77 -1.86,-3.19 -3.37,-4.43zm-25.63 4.96l-1.95 2.31c0,0.44 0.35,0.8 0.89,1.06 0.62,-1.06 0.98,-2.22 1.06,-3.37zm-91.94 0.35l-0.53 1.95 1.42 0c-0.09,-0.71 -0.35,-1.33 -0.89,-1.95zm-14.54 0.54l0 8.15 3.37 0c-0.09,-3.01 -1.24,-5.76 -3.37,-8.15zm25.18 1.42l-1.95 1.95c0.27,0.53 0.8,0.89 1.42,1.07 0.71,-0.18 1.24,-0.54 1.42,-1.07l-0.89 -1.95zm130.15 0.53c0,0.71 0.26,1.33 0.89,1.95 0,-0.71 -0.27,-1.33 -0.89,-1.95zm-166.33 2.48l-1.06 1.95 0.53 0.89 4.79 0.89c-0.44,-2.04 -1.86,-3.28 -4.26,-3.72zm-11.17 0l0.44 5.67 -2.39 0.53c0.35,-1.95 1.06,-4.08 1.95,-6.2zm104.89 2.83l-4.79 8.69c-0.98,0.98 -2.13,1.95 -3.37,2.84 -0.89,1.51 -1.51,3.19 -1.95,4.96l0.53 5.67c1.51,0.27 3.1,0.98 4.79,1.95l-1.42 8.33c0.18,0.44 0.62,0.71 1.42,0.89l1.42 -4.79 0.89 -1.42 3.54 0.89 0.35 -1.42 -0.35 -3.9 -1.59 -5.32 -0.35 -3.9c0.09,-0.53 0.35,-0.98 0.89,-1.42 1.24,-0.8 2.31,-1.69 3.37,-2.84l0 -6.38c-0.71,-1.24 -1.78,-2.13 -3.37,-2.84zm49.39 2.84l0 7.27 1.95 -0.89 0.89 -5.32 -2.83 -1.06zm-143.1 6.38l-0.53 2.31 1.42 0c0,-0.8 -0.35,-1.6 -0.89,-2.31zm12.94 1.42l-0.53 1.42 0.53 3.37 2.48 0 0.53 -3.9 -3.01 -0.89zm147.53 1.95l-0.53 1.42 1.07 0 0.35 -0.89 -0.89 -0.53zm-132.1 2.3l0 2.48c1.15,-0.44 2.13,-1.06 3.02,-1.95l-3.02 -0.54zm-38.65 0.54l0 4.79 2.93 -0.35 0 -4.43 -2.93 0zm156.22 3.37l-0.53 4.43 3.02 1.42c1.86,1.33 4.17,2.13 6.74,2.48 -0.44,-2.3 -2.04,-3.63 -4.79,-3.9l-4.43 -4.43zm11.7 0l-1.06 3.37c0.62,-0.89 0.97,-2.04 1.06,-3.37zm-201.7 0.53l-0.54 2.84 1.42 0c-0.09,-0.89 -0.35,-1.86 -0.89,-2.84zm11.52 3.9l0.53 4.79 1.95 -1.42 0.89 -1.95 -0.89 -1.42 -2.48 0zm46.9 0l1.06 5.76 1.95 -0.44 0.35 -4.43 -3.37 -0.89zm25.18 1.42l-5.32 2.48 -0.53 3.81 8.33 -1.95c-0.26,-1.59 -1.06,-3.02 -2.48,-4.34zm-15.43 4.34l0.53 5.32 2.84 -0.44 0.53 -4.43c-1.15,-0.18 -2.39,-0.35 -3.9,-0.44zm-60.02 3.46c0.53,1.15 1.51,1.95 2.84,2.39 -0.53,-1.15 -1.51,-1.95 -2.84,-2.39zm16.94 0.89l0.44 5.41 1.51 0c1.69,0.62 3.19,1.6 4.34,2.84 1.6,0.8 3.37,1.51 5.32,1.95l1.5 0.53 4.35 -0.53c1.33,0.35 2.57,0.8 3.81,1.42l6.39 -0.89 7.27 0c1.33,-0.18 2.31,-1.15 2.84,-2.93 -0.53,-1.86 -1.86,-3.01 -3.9,-3.46 -1.59,-0.53 -3.19,-1.33 -4.79,-2.39 -0.27,-0.44 -0.8,-0.8 -1.42,-0.98l-3.9 0.98 -4.79 4.88 -3.02 -1.42 -6.3 -1.06 -5.32 -1.86c-1.15,-1.06 -2.66,-1.95 -4.34,-2.48zm112.15 0.97c0.18,1.95 0.89,3.9 1.95,5.85l0 -5.85 -1.95 0zm30.06 3.9l-0.98 3.9 2.93 -0.53 0.97 -3.37 -2.93 0zm-54.17 3.37l0.97 6.3c0.44,1.42 1.42,2.66 2.93,3.81l-1.06 -6.2 -2.83 -3.9zm36.7 0c0.09,1.24 0.62,2.39 1.42,3.37 0,-1.24 -0.44,-2.39 -1.42,-3.37zm-20.22 1.42l0 3.9 0.89 -2.84c-0.09,-0.44 -0.35,-0.8 -0.89,-1.06zm-68.71 5.85l-8.16 2.83c-1.6,1.51 -2.39,3.46 -2.48,5.85l1.95 0 8.15 -1.95 1.95 -0.89c-0.27,-1.95 -0.71,-3.9 -1.42,-5.85zm30.94 0.97l-0.44 4.88 5.32 0c-0.97,-1.95 -2.66,-3.55 -4.87,-4.88zm9.22 0l-0.98 2.93 1.95 -0.53 -0.98 -2.39zm-32.01 1.86l-1.42 5.32c-0.62,0.18 -1.06,0.53 -1.42,1.07 0,0.89 0.26,1.68 0.89,2.48 1.42,-0.89 2.39,-2.22 3.02,-3.9 0,-1.59 -0.36,-3.19 -1.07,-4.96zm54.7 1.06c0.09,0.8 0.44,1.69 1.06,2.48 -0.09,-0.98 -0.44,-1.86 -1.06,-2.48zm-75.45 5.32c-0.71,0.62 -1.33,1.42 -1.95,2.48l3.37 0c-0.09,-1.06 -0.53,-1.86 -1.42,-2.48zm58.52 3.9c-0.71,0.8 -1.42,1.95 -1.86,3.37l1.42 -0.53c0.71,-0.62 1.42,-1.42 1.95,-2.48l-1.51 -0.36zm-8.69 3.72l0 2.48c0.8,-0.35 1.42,-0.98 1.95,-1.95l-1.95 -0.53z"/>
  <path class="fil3" d="M6199.91 1123.34c0,42.29 -0.98,72.17 -3.01,89.72 -1.95,17.65 -8.16,33.69 -18.62,48.23 -10.46,14.54 -24.65,25.71 -42.47,33.51 -17.82,7.8 -38.57,11.7 -62.24,11.7 -22.52,0 -42.65,-3.72 -60.56,-11.08 -17.91,-7.36 -32.36,-18.35 -43.18,-33.07 -10.91,-14.72 -17.38,-30.76 -19.51,-48.05 -2.04,-17.38 -3.1,-47.7 -3.1,-90.97l0 -71.99c0,-42.29 0.98,-72.17 3.02,-89.72 1.95,-17.65 8.16,-33.69 18.62,-48.23 10.46,-14.54 24.65,-25.71 42.47,-33.52 17.82,-7.8 38.57,-11.7 62.24,-11.7 22.52,0 42.65,3.72 60.56,11.08 17.91,7.36 32.36,18.35 43.18,33.07 10.91,14.72 17.38,30.76 19.5,48.05 2.04,17.38 3.1,47.7 3.1,90.96l0 71.99zm-109.58 -138.22c0,-19.5 -1.06,-32 -3.19,-37.5 -2.13,-5.41 -6.47,-8.15 -13.03,-8.15 -5.59,0 -9.84,2.22 -12.86,6.65 -2.93,4.34 -4.43,17.37 -4.43,39.01l0 196.38c0,24.38 0.98,39.46 2.93,45.13 1.95,5.76 6.47,8.6 13.56,8.6 7.27,0 11.97,-3.28 14.01,-9.84 2.04,-6.56 3.02,-22.26 3.02,-46.99l0 -193.28z"/>
  <path id="_1_0" class="fil3" d="M6472.45 1004.36l-101.6 0 0 -31.12c0,-14.54 -1.33,-23.85 -3.9,-27.84 -2.57,-3.99 -6.83,-5.94 -12.86,-5.94 -6.56,0 -11.52,2.66 -14.89,8.07 -3.37,5.32 -5.06,13.39 -5.06,24.29 0,14.01 1.95,24.56 5.76,31.65 3.72,7 14.01,15.6 30.94,25.71 48.5,28.99 79.08,52.84 91.67,71.37 12.68,18.53 18.97,48.41 18.97,89.55 0,29.96 -3.55,52.04 -10.55,66.31 -7,14.19 -20.48,26.07 -40.61,35.64 -20.04,9.67 -43.35,14.45 -70.04,14.45 -29.26,0 -54.17,-5.59 -74.92,-16.67 -20.66,-11.08 -34.13,-25.18 -40.61,-42.29 -6.39,-17.2 -9.57,-41.58 -9.57,-73.06l0 -27.57 101.6 0 0 51.15c0,15.78 1.42,25.89 4.26,30.41 2.84,4.52 7.89,6.74 15.16,6.74 7.27,0 12.68,-2.83 16.22,-8.6 3.55,-5.67 5.32,-14.19 5.32,-25.36 0,-24.74 -3.37,-40.96 -10.11,-48.5 -7,-7.63 -24.03,-20.39 -51.16,-38.3 -27.13,-18 -45.04,-31.12 -53.91,-39.28 -8.78,-8.16 -16.13,-19.42 -21.9,-33.78 -5.76,-14.36 -8.69,-32.72 -8.69,-55.06 0,-32.18 4.08,-55.76 12.32,-70.66 8.24,-14.89 21.46,-26.51 39.81,-34.93 18.35,-8.43 40.43,-12.59 66.41,-12.59 28.37,0 52.48,4.61 72.52,13.74 19.95,9.22 33.16,20.75 39.63,34.76 6.47,13.92 9.75,37.59 9.75,71.02l0 16.67z"/>
  <g id="_1953018398992">
   <path class="fil4" d="M1623.45 1435.63l412.19 -412.19c53.74,-53.74 141.66,-53.74 195.39,0l412.19 412.19c53.74,53.74 53.74,141.66 0,195.39l-186.87 186.87c2.83,-7.29 4.25,-14.93 4.25,-22.97 0,-10.64 -2.25,-20.8 -6.98,-30.5l-260.76 -521.54c-5.68,-11.47 -13.95,-20.46 -24.59,-26.96 -10.52,-6.5 -22.22,-9.69 -34.87,-9.69 -12.76,0 -24.47,3.19 -34.99,9.69 -10.64,6.5 -18.92,15.48 -24.59,26.96l-260.77 521.54c-4.61,9.69 -6.98,19.86 -6.98,30.5 0,8.04 1.42,15.7 4.26,22.98l-186.88 -186.88c-53.74,-53.74 -53.74,-141.66 0,-195.39zm795.18 419.98l-187.6 187.6c-53.74,53.74 -141.66,53.74 -195.39,0l-187.63 -187.62c7.77,3.18 15.86,4.82 24.5,4.82l521.66 0c8.62,0 16.82,-1.62 24.46,-4.8z"/>
   <path class="fil3" d="M2023.83 1708.77c-3.77,0 -7.29,-0.74 -10.67,-2.18 -3.32,-1.44 -6.3,-3.43 -8.88,-5.91 -2.53,-2.43 -4.57,-5.36 -6.11,-8.69 -1.49,-3.37 -2.23,-6.95 -2.23,-10.72 0,-4.47 0.99,-8.74 2.93,-12.8l109.47 -218.94c2.38,-4.81 5.86,-8.59 10.32,-11.31 4.42,-2.73 9.33,-4.07 14.69,-4.07 5.31,0 10.22,1.34 14.64,4.07 4.46,2.73 7.94,6.5 10.32,11.31l109.47 218.94c1.98,4.07 2.93,8.33 2.93,12.8 0,3.77 -0.74,7.34 -2.23,10.72 -1.54,3.33 -3.57,6.26 -6.1,8.69 -2.58,2.48 -5.56,4.46 -8.88,5.91 -3.33,1.44 -6.9,2.18 -10.67,2.18l-219 0z"/>
  </g>
  <path class="fil5" d="M6294.25 -97.37l189.43 -189.43c25.93,-25.93 68.35,-25.93 94.28,0l189.43 189.43c25.93,25.93 25.93,68.35 0,94.28l-189.43 189.43c-25.93,25.93 -68.35,25.93 -94.28,0l-189.43 -189.43c-25.93,-25.93 -25.93,-68.35 0,-94.28z"/>
  <path class="fil2" d="M6408.23 103.49c-4.22,0 -8.17,-0.83 -11.94,-2.44 -3.72,-1.61 -7.06,-3.83 -9.94,-6.61 -2.83,-2.72 -5.11,-6 -6.83,-9.72 -1.67,-3.78 -2.5,-7.78 -2.5,-12 0,-5 1.11,-9.78 3.28,-14.33l122.56 -245.11c2.67,-5.39 6.56,-9.61 11.56,-12.67 4.94,-3.06 10.44,-4.56 16.44,-4.56 5.94,0 11.44,1.5 16.39,4.56 5,3.06 8.89,7.28 11.56,12.67l122.56 245.11c2.22,4.56 3.28,9.33 3.28,14.33 0,4.22 -0.83,8.22 -2.5,12 -1.72,3.72 -4,7 -6.83,9.72 -2.89,2.78 -6.22,5 -9.94,6.61 -3.72,1.61 -7.72,2.44 -11.94,2.44l-245.17 0z"/>
  <path class="fil3" d="M6481.84 27.85c-1.69,0 -3.26,-0.33 -4.77,-0.98 -1.49,-0.64 -2.82,-1.53 -3.97,-2.64 -1.13,-1.09 -2.04,-2.4 -2.73,-3.88 -0.67,-1.51 -1,-3.11 -1,-4.8 0,-2 0.44,-3.91 1.31,-5.73l48.97 -97.93c1.06,-2.15 2.62,-3.84 4.61,-5.06 1.98,-1.22 4.17,-1.82 6.57,-1.82 2.38,0 4.57,0.6 6.55,1.82 2,1.22 3.55,2.91 4.62,5.06l48.97 97.93c0.89,1.82 1.31,3.73 1.31,5.73 0,1.69 -0.33,3.28 -1,4.8 -0.69,1.48 -1.6,2.8 -2.73,3.88 -1.15,1.11 -2.49,2 -3.97,2.64 -1.49,0.65 -3.09,0.98 -4.77,0.98l-97.96 0z"/>
 </g>
</svg>
