<?xml version="1.0" encoding="utf-8"?>
<!-- Generator: Adobe Illustrator 16.0.0, SVG Export Plug-In . SVG Version: 6.00 Build 0)  -->
<!DOCTYPE svg PUBLIC "-//W3C//DTD SVG 1.1//EN" "http://www.w3.org/Graphics/SVG/1.1/DTD/svg11.dtd">
<svg version="1.1" id="Capa_1" xmlns="http://www.w3.org/2000/svg" xmlns:xlink="http://www.w3.org/1999/xlink" x="0px" y="0px"
	 width="24px" height="24px" viewBox="0 0 24 24" enable-background="new 0 0 24 24" xml:space="preserve">
<path id="shock_x5F_color" fill="#03A9F4" d="M13.646,17.256l1.842,0.781C14.465,20.444,12.115,22,9.5,22C5.916,22,3,19.084,3,15.5
	c0-2.454,1.358-4.672,3.544-5.79l0.91,1.781C5.94,12.265,5,13.801,5,15.5C5,17.981,7.019,20,9.5,20
	C11.311,20,12.938,18.923,13.646,17.256z M20.304,18.52l-1.488,0.298L17.848,13H11v-2h5V9h-5V6.95C11.162,6.982,11.329,7,11.5,7
	C12.88,7,14,5.88,14,4.5S12.88,2,11.5,2S9,3.12,9,4.5l0,0V15h7.152l1.03,6.183l3.514-0.702L20.304,18.52z"/>
<path opacity="0.3" fill="#FFFFFF" d="M20.304,18.52l-1.488,0.298L17.848,13H11v-2h5V9h-5V6.95C11.162,6.982,11.329,7,11.5,7
	C12.88,7,14,5.88,14,4.5S12.88,2,11.5,2S9,3.12,9,4.5l0,0V15h7.152l1.03,6.183l3.514-0.702L20.304,18.52z"/>
</svg>
