<?xml version="1.0" encoding="utf-8"?>
<!-- Generator: Adobe Illustrator 16.0.0, SVG Export Plug-In . SVG Version: 6.00 Build 0)  -->
<!DOCTYPE svg PUBLIC "-//W3C//DTD SVG 1.1//EN" "http://www.w3.org/Graphics/SVG/1.1/DTD/svg11.dtd">
<svg xmlns="http://www.w3.org/2000/svg" xmlns:xlink="http://www.w3.org/1999/xlink" version="1.1" id="Capa_1" x="0px" y="0px" width="24px" height="24px" viewBox="0 0 24 24" style="enable-background:new 0 0 24 24;" xml:space="preserve">
<style type="text/css">
<![CDATA[
	.st0{opacity:0.2;fill:#FFFFFF;}
	.st1{fill:none;}
	.st2{opacity:0.4;fill:#FFFFFF;}
	.stshockcolor{fill:#42A5F5;}
]]>
</style>
<rect class="st1" width="24" height="24"/>
<path id="shock_x5F_color" class="stshockcolor" d="M4.025,12c0-2.339,1.013-4.436,2.616-5.895l-1.54-1.334C3.194,6.592,2,9.154,2,12  c0,2.846,1.194,5.407,3.102,7.229l1.54-1.334C5.038,16.436,4.025,14.339,4.025,12z M8,12c0-1.345,0.669-2.529,1.688-3.254  L8.151,7.414C6.843,8.513,6.011,10.158,6.011,12s0.833,3.486,2.14,4.586l1.537-1.332C8.669,14.529,8,13.346,8,12z M12,10.009  c1.1,0,1.991,0.892,1.991,1.991S13.1,13.991,12,13.991S10.009,13.1,10.009,12S10.9,10.009,12,10.009z M16,12  c0,1.346-0.669,2.529-1.688,3.254l1.537,1.333c1.308-1.099,2.141-2.745,2.141-4.587s-0.833-3.488-2.141-4.586l-1.537,1.333  C15.33,9.471,16,10.655,16,12z M18.898,4.771l-1.539,1.334c1.604,1.459,2.615,3.556,2.615,5.895s-1.013,4.436-2.615,5.895  l1.539,1.334C20.807,17.407,22,14.846,22,12C22,9.154,20.807,6.592,18.898,4.771z"/>
<path class="st2" d="M4.025,12c0-2.339,1.013-4.436,2.616-5.895l-1.54-1.334C3.194,6.592,2,9.154,2,12  c0,2.846,1.194,5.407,3.102,7.229l1.54-1.334C5.038,16.436,4.025,14.339,4.025,12z M8,12c0-1.345,0.669-2.529,1.688-3.254  L8.151,7.414C6.843,8.513,6.011,10.158,6.011,12s0.833,3.486,2.14,4.586l1.537-1.332C8.669,14.529,8,13.346,8,12z"/>
<path class="st0" d="M16,12c0,1.346-0.669,2.529-1.688,3.254l1.537,1.333c1.308-1.099,2.141-2.745,2.141-4.587  s-0.833-3.488-2.141-4.586l-1.537,1.333C15.33,9.471,16,10.655,16,12z M18.898,4.771l-1.539,1.334  c1.604,1.459,2.615,3.556,2.615,5.895s-1.013,4.436-2.615,5.895l1.539,1.334C20.807,17.407,22,14.846,22,12  C22,9.154,20.807,6.592,18.898,4.771z"/>
</svg>
