<?xml version="1.0" encoding="utf-8"?>
<!-- Generator: Adobe Illustrator 16.0.0, SVG Export Plug-In . SVG Version: 6.00 Build 0)  -->
<!DOCTYPE svg PUBLIC "-//W3C//DTD SVG 1.1//EN" "http://www.w3.org/Graphics/SVG/1.1/DTD/svg11.dtd">
<svg xmlns="http://www.w3.org/2000/svg" xmlns:xlink="http://www.w3.org/1999/xlink" version="1.1" id="Capa_1" x="0px" y="0px" width="24px" height="24px" viewBox="0 0 24 24" style="enable-background:new 0 0 24 24;" xml:space="preserve">
<style type="text/css">
<![CDATA[
	.st0{opacity:0.2;fill:#FFFFFF;}
	.stshockcolor{fill:#FFCA28;}
	.st2{fill:none;}
]]>
</style>
<rect class="st2" width="24" height="24"/>
<path id="shock_x5F_color" class="stshockcolor" d="M17,18h-2v-6h2v-2H7v2h2v6H7l-2,4h14L17,18z M11,18v-6h2v6H11z M13.9,7.1L14.39,10  l-2.6-1.37L9.19,10l0.5-2.9l-2.1-2.04l2.9-0.43L11.79,2l1.31,2.63L16,5.06L13.9,7.1z"/>
<path class="st0" d="M9,12h2v6H9V12z M13,12h2v6h-2V12z M11.794,2l1.302,2.633L16,5.056l-2.104,2.049L14.395,10l-2.601-1.367  L9.195,10l0.496-2.895L7.589,5.056l2.905-0.423L11.794,2z"/>
</svg>
