<?xml version="1.0" encoding="utf-8"?>
<!-- Generator: Adobe Illustrator 16.0.0, SVG Export Plug-In . SVG Version: 6.00 Build 0)  -->
<!DOCTYPE svg PUBLIC "-//W3C//DTD SVG 1.1//EN" "http://www.w3.org/Graphics/SVG/1.1/DTD/svg11.dtd">
<svg version="1.1" id="Capa_1" xmlns="http://www.w3.org/2000/svg" xmlns:xlink="http://www.w3.org/1999/xlink" x="0px" y="0px"
	 width="24px" height="24px" viewBox="0 0 24 24" style="enable-background:new 0 0 24 24;" xml:space="preserve">
<style type="text/css">
<![CDATA[
	.st0{opacity:0.3;fill:#FFFFFF;}
	.st1{fill:#FFFFFF;}
	.stshockcolor{fill:#A1887F;}
]]>
</style>
<rect x="6" y="4" class="st1" width="14" height="2"/>
<path id="shock_x5F_color" class="stshockcolor" d="M6,6h14v14c0,1.1-0.9,2-2,2H6c-1.1,0-2-0.9-2-2V4c0-1.1,0.9-2,2-2h12c1.1,0,2,0.9,2,2H6V6
	z"/>
<path class="st0" d="M20,4H6V2h12C18,2,20,2,20,4z M14,12.72c-0.27-0.11-0.61-0.22-1-0.22c-0.83,0-1.5,0.67-1.5,1.5
	s0.67,1.5,1.5,1.5c0.44,0,0.84-0.14,1.11-0.28C14.04,14.99,14,14.75,14,14.5V12.72z M20,6v14c0,1.1-0.9,2-2,2H6V6H20z M19,14
	c0-3.31-2.69-6-6-6c-3.31,0-6,2.69-6,6c0,3.31,2.69,6,6,6c1.05,0,2.04-0.27,2.9-0.75l-0.73-1.33c-0.65,0.36-1.38,0.58-2.17,0.58
	c-2.48,0-4.5-2.02-4.5-4.5c0-2.48,2.02-4.5,4.5-4.5c2.48,0,4.5,2.02,4.5,4.5c0,1.28-0.54,1.5-1.09,1.5c-0.561,0-0.91-0.45-0.91-1V12
	c0,0-0.84-1-2.5-1s-3,1.34-3,3s1.34,3,3,3c0.86,0,1.5-0.27,1.92-0.53c0.4,0.33,0.91,0.53,1.49,0.53C17.79,17,19,16.09,19,14z"/>
</svg>
