<?xml version="1.0" encoding="utf-8"?>
<!-- Generator: Adobe Illustrator 16.0.0, SVG Export Plug-In . SVG Version: 6.00 Build 0)  -->
<!DOCTYPE svg PUBLIC "-//W3C//DTD SVG 1.1//EN" "http://www.w3.org/Graphics/SVG/1.1/DTD/svg11.dtd">
<svg xmlns="http://www.w3.org/2000/svg" xmlns:xlink="http://www.w3.org/1999/xlink" version="1.1" id="Capa_1" x="0px" y="0px" width="24px" height="24px" viewBox="0 0 24 24" style="enable-background:new 0 0 24 24;" xml:space="preserve">
<style type="text/css">
<![CDATA[
	.stshockcolor{fill:#26A69A;}
	.st1{fill:none;}
	.st2{opacity:0.4;fill:#FFFFFF;}
	.st3{fill:#78909C;}
]]>
</style>
<rect class="st1" width="24" height="24"/>
<path id="shock_x5F_color" class="stshockcolor" d="M20.88,6.97l-3,12C17.44,20.75,15.84,22,14,22H2v-6l2-2h6.88l2.24-8.97l1.6,0.4  L20.88,6.97z"/>
<path class="st2" d="M14,22H7v-8h3.877l2.242-8.97l7.762,1.94l-3,12C17.436,20.751,15.836,22,14,22z"/>
<path class="st3" d="M19.92,5.11l-0.36,1.53l-4.84-1.21l0.36-1.54c0.33-1.34,1.7-2.15,3.03-1.81C19.45,2.41,20.26,3.77,19.92,5.11z"/>
</svg>
