<?xml version="1.0" encoding="utf-8"?>
<!-- Generator: Adobe Illustrator 16.0.0, SVG Export Plug-In . SVG Version: 6.00 Build 0)  -->
<!DOCTYPE svg PUBLIC "-//W3C//DTD SVG 1.1//EN" "http://www.w3.org/Graphics/SVG/1.1/DTD/svg11.dtd">
<svg xmlns="http://www.w3.org/2000/svg" xmlns:xlink="http://www.w3.org/1999/xlink" version="1.1" id="Capa_1" x="0px" y="0px" width="24px" height="24px" viewBox="0 0 24 24" style="enable-background:new 0 0 24 24;" xml:space="preserve">
<style type="text/css">
<![CDATA[
	.stshockcolor{fill:#5C6BC0;}
	.st1{fill:none;}
	.st2{opacity:0.4;fill:#FFFFFF;}
]]>
</style>
<rect class="st1" width="24" height="24"/>
<path id="shock_x5F_color_1_" class="stshockcolor" d="M22,6c0-2-2-2-2-2H4C2,4,2,6,2,6v12c0,2,2,2,2,2h16c0,0,2,0,2-2V6z"/>
<path class="st2" d="M2,11h6.59l-3.3-3.29l1.42-1.42l5.7,5.71l-5.7,5.71l-1.42-1.42L8.59,13H2V11z M22,11h-4.586l1.293-1.293  l-1.414-1.414L13.586,12l3.707,3.707l1.414-1.414L17.414,13H22V11z"/>
</svg>
