<svg version="1.1" id="Capa_1" xmlns="http://www.w3.org/2000/svg" xmlns:xlink="http://www.w3.org/1999/xlink" x="0px" y="0px"
	 width="24px" height="24px" viewBox="0 0 24 24" style="enable-background:new 0 0 24 24;" xml:space="preserve">
<style type="text/css">
	.stshockcolor{fill:#212121;}
	.st1{opacity:0.8;fill:#FFFFFF;}
</style>
<path id="shock_x5F_color_1_" class="stshockcolor" d="M11.5,1.5C5.71,1.5,1,6.21,1,12c0,5.79,4.71,10.5,10.5,10.5C17.29,22.5,22,17.79,22,12
	C22,6.21,17.29,1.5,11.5,1.5z"/>
<path class="st1" d="M15.095,4.309c0.278,0.131,0.548,0.277,0.809,0.435c0.017,0.011,0.035,0.021,0.052,0.032
	c0.237,0.146,0.465,0.305,0.686,0.472c0.034,0.026,0.069,0.051,0.103,0.077c0.203,0.159,0.396,0.329,0.584,0.505
	c0.038,0.036,0.08,0.07,0.117,0.107c0.216,0.211,0.423,0.432,0.615,0.666l0,0l-1.199,3.049l-2.048,0.579L12.5,8.379V6.177
	L15.095,4.309z M7.664,16.166l0.878-1.297l-0.907-2.722l-1.95-0.562l-2.516,2.095v0c0.08,0.397,0.195,0.781,0.329,1.155
	c0.023,0.065,0.046,0.129,0.071,0.193c0.143,0.372,0.306,0.735,0.497,1.081L7.664,16.166z M12.958,20.366l0.943-2.975L12.868,16
	h-2.677l-0.916,1.352l0.966,3.044c0.19,0.028,0.381,0.051,0.574,0.069c0.226,0.018,0.453,0.035,0.684,0.035
	c0.254,0,0.503-0.016,0.751-0.038C12.489,20.439,12.725,20.406,12.958,20.366z M19.43,15.035c0.025-0.065,0.048-0.13,0.072-0.196
	c0.133-0.373,0.248-0.755,0.329-1.151l-2.496-2.092l-1.971,0.557l-0.886,2.657l1.007,1.356l3.448-0.053l0,0
	C19.124,15.769,19.287,15.407,19.43,15.035z M6.366,5.241C6.33,5.269,6.293,5.295,6.258,5.323C6.06,5.477,5.871,5.643,5.688,5.815
	c-0.043,0.04-0.089,0.078-0.131,0.119c-0.214,0.209-0.419,0.428-0.61,0.659l1.185,3.04l2.059,0.593L10.5,8.379V6.177L7.905,4.309
	C7.628,4.439,7.36,4.584,7.099,4.742C7.082,4.753,7.064,4.763,7.046,4.774C6.811,4.918,6.586,5.076,6.366,5.241z"/>
</svg>
