<svg version="1.1" id="Capa_1" xmlns="http://www.w3.org/2000/svg" xmlns:xlink="http://www.w3.org/1999/xlink" x="0px" y="0px"
	 width="24px" height="24px" viewBox="0 0 24 24" style="enable-background:new 0 0 24 24;" xml:space="preserve">
<style type="text/css">
	.stshockcolor{fill:#6200EA;}
	.st1{opacity:0.3;fill:#FFFFFF;}
</style>
<path id="shock_x5F_color_1_" class="stshockcolor" d="M11,5c0-1.105,0.895-2,2-2s2,0.895,2,2c0,1.105-0.895,2-2,2S11,6.105,11,5z
	 M21.491,12.084l-1.749,0.971c-0.241,0.134-0.546,0.047-0.68-0.194c-0.134-0.241-0.047-0.546,0.194-0.68l0.327-0.182l-0.373-0.797
	l-2.504,2.504C16.526,13.888,16.276,14,16,14c-0.246,0-0.463-0.099-0.637-0.246l-0.008,0.01l-2.083-1.761
	c-0.164,0.606-0.269,1.58-0.271,3.489l2.548,1.672l-0.01,0.015C15.81,17.358,16,17.651,16,18v4h-2v-3.46l-3.65-2.396L8.128,22H5.989
	l3.039-8.009c0.1-2.671,0.491-3.768,1.266-5.035l0.005,0.003C10.651,8.386,11.278,8,12,8h5.711l-2.635-5.624l0.006-0.002
	C15.034,2.257,15,2.134,15,2c0-0.552,0.448-1,1-1c0.427,0,0.785,0.27,0.928,0.646L19.466,8H20c0.552,0,1,0.448,1,1
	c0,0.276-0.112,0.526-0.293,0.707l-0.4,0.4l0.487,1.221l0.212-0.117c0.241-0.134,0.546-0.047,0.68,0.194
	C21.82,11.646,21.733,11.95,21.491,12.084z M17.586,10h-3.584l1.942,1.643L17.586,10z"/>
<path class="st1" d="M19.293,8.293l-0.984,0.984l-3.233-6.901l0.006-0.002C15.034,2.257,15,2.134,15,2c0-0.552,0.448-1,1-1
	c0.427,0,0.785,0.27,0.928,0.646l2.593,6.493C19.44,8.184,19.358,8.228,19.293,8.293z M21.686,11.405
	c-0.134-0.241-0.438-0.328-0.68-0.194l-0.212,0.117l-0.487-1.221l-1.096,1.096l0.373,0.797l-0.327,0.182
	c-0.241,0.134-0.328,0.438-0.194,0.68c0.134,0.241,0.438,0.328,0.68,0.194l1.749-0.971C21.733,11.95,21.82,11.646,21.686,11.405z"/>
</svg>
