<?xml version="1.0" encoding="utf-8"?>
<!-- Generator: Adobe Illustrator 16.0.0, SVG Export Plug-In . SVG Version: 6.00 Build 0)  -->
<!DOCTYPE svg PUBLIC "-//W3C//DTD SVG 1.1//EN" "http://www.w3.org/Graphics/SVG/1.1/DTD/svg11.dtd">
<svg xmlns="http://www.w3.org/2000/svg" xmlns:xlink="http://www.w3.org/1999/xlink" version="1.1" id="Capa_1" x="0px" y="0px" width="24px" height="24px" viewBox="0 0 24 24" style="enable-background:new 0 0 24 24;" xml:space="preserve">
<style type="text/css">
<![CDATA[
	.st0{opacity:0.2;fill:#FFFFFF;enable-background:new    ;}
	.stshockcolor{fill:#FFA726;}
	.st2{fill:none;}
	.st3{opacity:0.6;fill:#FFFFFF;enable-background:new    ;}
]]>
</style>
<rect class="st2" width="24" height="24"/>
<path id="shock_x5F_color" class="stshockcolor" d="M18.46,9.03c0.36-0.6,0.56-1.29,0.56-2.03c0-1.9-1.318-3.49-3.1-3.9  c-0.41-1.78-2-3.1-3.9-3.1C10.8,0,9.71,0.54,8.99,1.4C8.38,1.14,7.72,1,7.02,1c-2.76,0-5,2.24-5,5C2.02,7.63,2.8,9.07,4,9.98V21  c0,1.1,0.9,2,2,2h10c1.1,0,2-0.9,2-2c2.93,0,4-2.391,4-4v-4C22,10.34,20.029,9.21,18.46,9.03z M20,17c0,0.33-0.1,2-2,2v-8  c0.33,0,2,0.1,2,2V17z"/>
<path class="st0" d="M16,10.87V20c0,0.55-0.45,1-1,1s-1-0.45-1-1v-9.15c-0.68-0.2-1.18-0.57-2-0.75V20c0,0.55-0.45,1-1,1  s-1-0.45-1-1v-9.77c-0.56,0.21-1.21,0.52-2,0.68V20c0,0.55-0.45,1-1,1s-1-0.45-1-1v-9.1c-0.74-0.16-1.42-0.47-2-0.92V21  c0,1.1,0.9,2,2,2h10c1.1,0,2-0.9,2-2V9.66C17.49,10.25,16.79,10.68,16,10.87z"/>
<path class="st3" d="M19.016,7c0,2.21-1.789,4-4,4c-1.67,0-2.031-1-4.016-1c-1,0-2.145,1-3.984,1c-2.76,0-5-2.24-5-5s2.24-5,5-5  c0.7,0,1.36,0.14,1.97,0.4c0.72-0.86,1.81-1.4,3.03-1.4c1.9,0,3.49,1.32,3.9,3.1C17.695,3.51,19.016,5.1,19.016,7z"/>
</svg>
