<?xml version="1.0" encoding="utf-8"?>
<!-- Generator: Adobe Illustrator 16.0.0, SVG Export Plug-In . SVG Version: 6.00 Build 0)  -->
<!DOCTYPE svg PUBLIC "-//W3C//DTD SVG 1.1//EN" "http://www.w3.org/Graphics/SVG/1.1/DTD/svg11.dtd">
<svg xmlns="http://www.w3.org/2000/svg" xmlns:xlink="http://www.w3.org/1999/xlink" version="1.1" id="Capa_1" x="0px" y="0px" width="24px" height="24px" viewBox="0 0 24 24" style="enable-background:new 0 0 24 24;" xml:space="preserve">
<style type="text/css">
<![CDATA[
	.st0{opacity:0.6;fill:#FFFFFF;}
	.stshockcolor{fill:#9575CD;}
	.st2{fill:none;}
	.st3{opacity:0.4;fill:#FFFFFF;enable-background:new    ;}
	.st4{opacity:0.4;fill:#FFFFFF;}
	.st5{fill:#78909C;}
]]>
</style>
<rect class="st2" width="24" height="24"/>
<path id="shock_x5F_color" class="stshockcolor" d="M23,15c-0.52,1.15-2.1,2-4,2s-3.48-0.85-4-2h2l2-5l2,5H23z M7,15l-2-5l-2,5H1  c0.52,1.15,2.1,2,4,2s3.48-0.85,4-2H7z"/>
<path class="st3" d="M5,10l-2,5h4L5,10z M19,10l-2,5h4L19,10z"/>
<path id="_x3C_Trazado_x3E_" class="st5" d="M20,7v2h-6v11l-2,3l-2-3V9H4V7h7V4.73C10.4,4.38,10,3.74,10,3c0-1.1,0.9-2,2-2  c1.1,0,2,0.9,2,2c0,0.74-0.4,1.38-1,1.73V7H20z"/>
<polygon class="st0" points="12,9 12,23 10,20 10,9 "/>
<polygon class="st4" points="14,9 14,20 12,23 12,9 "/>
</svg>
