<?xml version="1.0" encoding="utf-8"?>
<!-- Generator: Adobe Illustrator 16.0.0, SVG Export Plug-In . SVG Version: 6.00 Build 0)  -->
<!DOCTYPE svg PUBLIC "-//W3C//DTD SVG 1.1//EN" "http://www.w3.org/Graphics/SVG/1.1/DTD/svg11.dtd">
<svg xmlns="http://www.w3.org/2000/svg" xmlns:xlink="http://www.w3.org/1999/xlink" version="1.1" id="Capa_1" x="0px" y="0px" width="24px" height="24px" viewBox="0 0 24 24" style="enable-background:new 0 0 24 24;" xml:space="preserve">
<style type="text/css">
<![CDATA[
	.stshockcolor{fill:#FFB74D;}
	.st1{opacity:0.4;fill:#FFFFFF;}
]]>
</style>
<path id="shock_x5F_color" class="stshockcolor" d="M2,6.04c0,0,0.04-2.02,2.02-2.02s15.98,0,15.98,0s1.99,0,1.99,1.99V18  c0,0,0,1.995-1.995,1.995c0,0-15.995-0.005-15.995,0s-1.998,0.001-1.998-1.997L2,6.04z"/>
<path class="st1" d="M21.99,6.01L12,11L2.01,6c0.01-0.29,0.2-1.98,2.01-1.98c0.98,0,15.98,0,15.98,0S21.99,4.02,21.99,6.01z M12,13  L2,8v10c0,2,2,2,2,2c0-0.01,16,0,16,0c1.99,0,1.99-2,1.99-2V8.01L12,13z"/>
</svg>
