<?xml version="1.0" encoding="utf-8"?>
<!-- Generator: Adobe Illustrator 16.0.0, SVG Export Plug-In . SVG Version: 6.00 Build 0)  -->
<!DOCTYPE svg PUBLIC "-//W3C//DTD SVG 1.1//EN" "http://www.w3.org/Graphics/SVG/1.1/DTD/svg11.dtd">
<svg xmlns="http://www.w3.org/2000/svg" xmlns:xlink="http://www.w3.org/1999/xlink" version="1.1" id="Capa_1" x="0px" y="0px" width="24px" height="24px" viewBox="0 0 24 24" style="enable-background:new 0 0 24 24;" xml:space="preserve">
<style type="text/css">
<![CDATA[
	.st0{opacity:0.6;fill:#FFFFFF;}
	.st1{opacity:0.3;fill:#FFFFFF;}
	.stshockcolor{fill:#546E7A;}
	.st3{fill:#5C6BC0;}
]]>
</style>
<path id="shock_x5F_color" class="stshockcolor" d="M23,4v12c0,0,0,2-2,2h-7l2,3v1H8v-1l2-3H3c0,0-2,0-2-2V4c0,0,0-2,2-2h18C23,2,23,4,23,4z"/>
<path class="st0" d="M23,4v12H1V4c0,0,0-2,2-2h18C23,2,23,4,23,4z"/>
<rect x="3" y="4" class="st3" width="18" height="10"/>
<path class="st1" d="M23,16c0,0,0,2-2,2H3c0,0-2,0-2-2H23z"/>
</svg>
