<?xml version="1.0" encoding="utf-8"?>
<!-- Generator: Adobe Illustrator 16.0.0, SVG Export Plug-In . SVG Version: 6.00 Build 0)  -->
<!DOCTYPE svg PUBLIC "-//W3C//DTD SVG 1.1//EN" "http://www.w3.org/Graphics/SVG/1.1/DTD/svg11.dtd">
<svg xmlns="http://www.w3.org/2000/svg" xmlns:xlink="http://www.w3.org/1999/xlink" version="1.1" id="Capa_1" x="0px" y="0px" width="24px" height="24px" viewBox="0 0 24 24" style="enable-background:new 0 0 24 24;" xml:space="preserve">
<style type="text/css">
<![CDATA[
	.st0{opacity:0.38;fill:#FFFFFF;enable-background:new    ;}
	.stshockcolor{fill:#039BE5;}
]]>
</style>
<path id="shock_x5F_color" class="stshockcolor" d="M9,3v9.555C8.41,12.211,7.732,12,7,12c-2.209,0-4,1.791-4,4s1.791,4,4,4s4-1.791,4-4V6h8  v6.555C18.409,12.211,17.732,12,17,12c-2.209,0-4,1.791-4,4s1.791,4,4,4s4-1.791,4-4V3H9z"/>
<path class="st0" d="M7,12c2.209,0,4,1.791,4,4s-1.791,4-4,4s-4-1.791-4-4S4.791,12,7,12z M17,12c2.209,0,4,1.791,4,4s-1.791,4-4,4  s-4-1.791-4-4S14.791,12,17,12z"/>
</svg>
