<?xml version="1.0" encoding="utf-8"?>
<!-- Generator: Adobe Illustrator 16.0.0, SVG Export Plug-In . SVG Version: 6.00 Build 0)  -->
<!DOCTYPE svg PUBLIC "-//W3C//DTD SVG 1.1//EN" "http://www.w3.org/Graphics/SVG/1.1/DTD/svg11.dtd">
<svg version="1.1" id="Capa_1" xmlns="http://www.w3.org/2000/svg" xmlns:xlink="http://www.w3.org/1999/xlink" x="0px" y="0px"
	 width="24px" height="24px" viewBox="0 0 24 24" enable-background="new 0 0 24 24" xml:space="preserve">
<path id="shock_x5F_color" fill="#546E7A" d="M4,12c0-0.552,0.448-1,1-1h14c0.553,0,1,0.448,1,1l0,0c0,0.552-0.447,1-1,1H5
	C4.448,13,4,12.552,4,12L4,12z M4,8c0,0.552,0.448,1,1,1h14c0.553,0,1-0.448,1-1l0,0c0-0.552-0.447-1-1-1H5C4.448,7,4,7.448,4,8L4,8
	z M4,16c0,0.553,0.448,1,1,1h14c0.553,0,1-0.447,1-1l0,0c0-0.553-0.447-1-1-1H5C4.448,15,4,15.447,4,16L4,16z"/>
</svg>
