<?xml version="1.0" encoding="utf-8"?>
<!-- Generator: Adobe Illustrator 16.0.0, SVG Export Plug-In . SVG Version: 6.00 Build 0)  -->
<!DOCTYPE svg PUBLIC "-//W3C//DTD SVG 1.1//EN" "http://www.w3.org/Graphics/SVG/1.1/DTD/svg11.dtd">
<svg xmlns="http://www.w3.org/2000/svg" xmlns:xlink="http://www.w3.org/1999/xlink" version="1.1" id="Capa_1" x="0px" y="0px" width="24px" height="24px" viewBox="0 0 24 24" style="enable-background:new 0 0 24 24;" xml:space="preserve">
<style type="text/css">
<![CDATA[
	.st0{fill:none;}
	.stshockcolor{fill:#CE93D8;}
	.st2{opacity:0.4;fill:#FFFFFF;}
]]>
</style>
<rect class="st0" width="24" height="24"/>
<path id="shock_x5F_color" class="stshockcolor" d="M20,13c0,2-0.21,5.74-4,7c-3,1-3,2-4,2s-1-1-4-2c-3.79-1.26-4-5-4-7  c0-2.78,1.73-5.08,4.28-6.22C7,5.61,7,4,7,4c1.33,0,2.3,0.28,3.02,0.7C10.2,2.9,12,2,12,2s1.8,0.9,1.98,2.7C14.7,4.28,15.67,4,17,4  c0,0,0,1.61-1.28,2.78C18.27,7.92,20,10.22,20,13z"/>
<path class="st2" d="M8,13c0,5,4,9,4,9c-1,0-1-1-4-2c-3.79-1.26-4-5-4-7c0-3.55,2.83-6.32,6.56-6.88C9.41,7.29,8,9.44,8,13z   M13.44,6.12C14.59,7.29,16,9.44,16,13c0,5-4,9-4,9c1,0,1-1,4-2c3.79-1.26,4-5,4-7C20,9.45,17.17,6.68,13.44,6.12z"/>
</svg>
