<?xml version="1.0" encoding="utf-8"?>
<!-- Generator: Adobe Illustrator 16.0.0, SVG Export Plug-In . SVG Version: 6.00 Build 0)  -->
<!DOCTYPE svg PUBLIC "-//W3C//DTD SVG 1.1//EN" "http://www.w3.org/Graphics/SVG/1.1/DTD/svg11.dtd">
<svg xmlns="http://www.w3.org/2000/svg" xmlns:xlink="http://www.w3.org/1999/xlink" version="1.1" id="Capa_1" x="0px" y="0px" width="24px" height="24px" viewBox="0 0 24 24" style="enable-background:new 0 0 24 24;" xml:space="preserve">
<style type="text/css">
<![CDATA[
	.stshockcolor{fill:#7E57C2;}
	.st1{fill:#263238;}
	.st2{fill:none;}
	.st3{opacity:0.7;fill:#FFFFFF;}
]]>
</style>
<rect class="st2" width="24" height="24"/>
<path id="shock_x5F_color" class="stshockcolor" d="M0,9c0,0,0-2,2-2h19c0,0,2,0,2,2v7c0,0,0,2-2,2H2c0,0-2,0-2-2V9z"/>
<path class="st3" d="M2,10c0,0,0-1,1-1h17c0,0,1,0,1,1v5c0,0,0,1-1,1H3c0,0-1,0-1-1V10z"/>
<path class="st1" d="M9.5,11c0.829,0,1.5,0.671,1.5,1.5c0,0.828-0.671,1.5-1.5,1.5S8,13.328,8,12.5C8,11.671,8.671,11,9.5,11z   M5.5,11C6.329,11,7,11.671,7,12.5C7,13.328,6.329,14,5.5,14S4,13.328,4,12.5C4,11.671,4.671,11,5.5,11z M13.5,11  c0.828,0,1.5,0.671,1.5,1.5c0,0.828-0.672,1.5-1.5,1.5c-0.829,0-1.5-0.672-1.5-1.5C12,11.671,12.671,11,13.5,11z M17.5,11  c0.828,0,1.5,0.671,1.5,1.5c0,0.828-0.672,1.5-1.5,1.5S16,13.328,16,12.5C16,11.671,16.672,11,17.5,11z"/>
</svg>
