<?xml version="1.0" encoding="utf-8"?>
<!-- Generator: Adobe Illustrator 16.0.0, SVG Export Plug-In . SVG Version: 6.00 Build 0)  -->
<!DOCTYPE svg PUBLIC "-//W3C//DTD SVG 1.1//EN" "http://www.w3.org/Graphics/SVG/1.1/DTD/svg11.dtd">
<svg xmlns="http://www.w3.org/2000/svg" xmlns:xlink="http://www.w3.org/1999/xlink" version="1.1" id="Capa_1" x="0px" y="0px" width="24px" height="24px" viewBox="0 0 24 24" style="enable-background:new 0 0 24 24;" xml:space="preserve">
<style type="text/css">
<![CDATA[
	.st0{opacity:0.2;fill:#F4F4F4;}
	.stshockcolor{fill:#F57C00;}
	.st2{fill:none;}
	.st3{fill:#6D4C41;}
	.st4{fill:#43A047;}
]]>
</style>
<rect class="st2" width="24" height="24"/>
<path class="st3" d="M12,10c-0.552,0-1-0.448-1-1c0-4.166-1.469-5.116-1.484-5.125c-0.456-0.28-0.63-0.881-0.37-1.35  c0.26-0.468,0.82-0.661,1.301-0.42C10.708,2.236,13,3.54,13,9C13,9.552,12.552,10,12,10z"/>
<path class="st4" d="M12,6c0,0,0-5,5-4C17,2,17,7,12,6z"/>
<path id="shock_x5F_color" class="stshockcolor" d="M21,12.78C21,18,14.19,22,12,22c-2.19,0-9-4-9-9.22C3,8.15,5.46,6.01,7.62,6  C9.42,6,12,8,12,8s2.58-2,4.38-2C18.54,6.01,21,8.15,21,12.78z"/>
<path class="st0" d="M12,8v14c-2.19,0-9-4-9-9.22C3,8.15,5.46,6.01,7.62,6C9.42,6,12,8,12,8z"/>
</svg>
