<?xml version="1.0" encoding="utf-8"?>
<!-- Generator: Adobe Illustrator 16.0.0, SVG Export Plug-In . SVG Version: 6.00 Build 0)  -->
<!DOCTYPE svg PUBLIC "-//W3C//DTD SVG 1.1//EN" "http://www.w3.org/Graphics/SVG/1.1/DTD/svg11.dtd">
<svg xmlns="http://www.w3.org/2000/svg" xmlns:xlink="http://www.w3.org/1999/xlink" version="1.1" id="Capa_1" x="0px" y="0px" width="24px" height="24px" viewBox="0 0 24 24" style="enable-background:new 0 0 24 24;" xml:space="preserve">
<style type="text/css">
<![CDATA[
	.stshockcolor{fill:#546E7A;}
	.st1{fill:none;}
	.st2{opacity:0.4;fill:#FFFFFF;}
]]>
</style>
<rect class="st1" width="24" height="24"/>
<path id="shock_x5F_color" class="stshockcolor" d="M21,22H3v-8.62c0-0.06,0-0.12,0.01-0.18v-0.04c0.01-0.05,0.01-0.101,0.02-0.141  c0-0.01,0-0.01,0-0.02c0.1-0.67,0.48-2,1.97-2h1V2h12v9h1c0,0,1.94,0,1.97,2L21,22z"/>
<path class="st2" d="M6,2v9h12V2H6z M11,8H8V5h3V8z M16,8h-3V5h3V8z"/>
</svg>
