<?xml version="1.0" encoding="utf-8"?>
<!-- Generator: Adobe Illustrator 16.0.0, SVG Export Plug-In . SVG Version: 6.00 Build 0)  -->
<!DOCTYPE svg PUBLIC "-//W3C//DTD SVG 1.1//EN" "http://www.w3.org/Graphics/SVG/1.1/DTD/svg11.dtd">
<svg xmlns="http://www.w3.org/2000/svg" xmlns:xlink="http://www.w3.org/1999/xlink" version="1.1" id="Capa_1" x="0px" y="0px" width="24px" height="24px" viewBox="0 0 24 24" style="enable-background:new 0 0 24 24;" xml:space="preserve">
<style type="text/css">
<![CDATA[
	.st0{opacity:0.2;fill:#FFFFFF;}
	.st1{fill:#FAFAFA;}
	.st2{fill:none;}
	.st3{fill:#3949AB;}
	.stshockcolor{fill:#78909C;}
]]>
</style>
<rect class="st2" width="24" height="24"/>
<path id="shock_x5F_color" class="stshockcolor" d="M19,4v16c0,0,0,3-3,3H8c-3,0-3-3-3-3V4c0,0,0-3,3-3h8C19,1,19,4,19,4z"/>
<path class="st0" d="M19,4v14H5V4c0,0,0-3,3-3h8C19,1,19,4,19,4z"/>
<rect x="10" y="20" class="st1" width="4" height="1"/>
<rect x="7" y="4" class="st3" width="10" height="14"/>
</svg>
