<?xml version="1.0" encoding="utf-8"?>
<!-- Generator: Adobe Illustrator 16.0.0, SVG Export Plug-In . SVG Version: 6.00 Build 0)  -->
<!DOCTYPE svg PUBLIC "-//W3C//DTD SVG 1.1//EN" "http://www.w3.org/Graphics/SVG/1.1/DTD/svg11.dtd">
<svg xmlns="http://www.w3.org/2000/svg" xmlns:xlink="http://www.w3.org/1999/xlink" version="1.1" id="Capa_1" x="0px" y="0px" width="24px" height="24px" viewBox="0 0 24 24" style="enable-background:new 0 0 24 24;" xml:space="preserve">
<style type="text/css">
<![CDATA[
	.st0{fill:#E53935;}
	.st1{opacity:0.2;fill:#FFFFFF;}
	.stshockcolor{fill:#FFCC80;}
	.st3{fill:none;}
	.st4{opacity:0.4;fill:#FFFFFF;}
	.st5{fill:#43A047;}
]]>
</style>
<path id="shock_x5F_color" class="stshockcolor" d="M22.03,6.19L20.99,8L12,24L3.01,8L1.99,6.18C4.62,3.52,8.24,2,12,2S19.38,3.52,22.03,6.19  z"/>
<path class="st1" d="M4.518,6.6C6.636,4.934,9.292,4,12,4c2.702,0,5.359,0.935,7.487,2.601l-0.231,0.403L12,19.917L4.518,6.6z"/>
<path class="st4" d="M22.03,6.19C19.38,3.52,15.76,2,12,2S4.62,3.52,1.99,6.18L3.01,8C5.23,5.54,8.43,4,12,4  c3.57,0,6.78,1.55,8.99,4L22.03,6.19z"/>
<path class="st5" d="M14,14c0,1.1-0.9,2-2,2c-1.1,0-2-0.9-2-2s0.9-2,2-2C13.1,12,14,12.9,14,14z"/>
<path class="st0" d="M11,8c0,1.1-0.9,2-2,2S7,9.1,7,8s0.9-2,2-2S11,6.9,11,8z"/>
<rect class="st3" width="24" height="24"/>
</svg>
