<?xml version="1.0" encoding="utf-8"?>
<!-- Generator: Adobe Illustrator 16.0.0, SVG Export Plug-In . SVG Version: 6.00 Build 0)  -->
<!DOCTYPE svg PUBLIC "-//W3C//DTD SVG 1.1//EN" "http://www.w3.org/Graphics/SVG/1.1/DTD/svg11.dtd">
<svg xmlns="http://www.w3.org/2000/svg" xmlns:xlink="http://www.w3.org/1999/xlink" version="1.1" id="Capa_1" x="0px" y="0px" width="24px" height="24px" viewBox="0 0 24 24" style="enable-background:new 0 0 24 24;" xml:space="preserve">
<style type="text/css">
<![CDATA[
	.st0{fill:none;}
	.st1{opacity:0.4;fill:#FFFFFF;}
	.stshockcolor{fill:#0288D1;}
]]>
</style>
<rect class="st0" width="24" height="24"/>
<path id="shock_x5F_color" class="stshockcolor" d="M22,14c0,0.55-0.45,1-1,1h-2v2h-4v2c0,0.55-0.45,1-1,1H5c-0.55,0-1-0.45-1-1V5  c0-0.55,0.45-1,1-1h9c0.55,0,1,0.45,1,1v2h4v2h2c0.55,0,1,0.45,1,1s-0.45,1-1,1h-2v2h2C21.55,13,22,13.45,22,14z"/>
<path class="st1" d="M15.41,12l-4.7,4.71l-1.42-1.42l2.3-2.29H4v-2h7.59l-2.3-2.29l1.42-1.42L15.41,12z M21,13h-2v2h2  c0.55,0,1-0.45,1-1S21.55,13,21,13z M21,11h-2V9h2c0.55,0,1,0.45,1,1S21.55,11,21,11z"/>
</svg>
