<?xml version="1.0" encoding="utf-8"?>
<!-- Generator: Adobe Illustrator 16.0.0, SVG Export Plug-In . SVG Version: 6.00 Build 0)  -->
<!DOCTYPE svg PUBLIC "-//W3C//DTD SVG 1.1//EN" "http://www.w3.org/Graphics/SVG/1.1/DTD/svg11.dtd">
<svg xmlns="http://www.w3.org/2000/svg" xmlns:xlink="http://www.w3.org/1999/xlink" version="1.1" id="Capa_1" x="0px" y="0px" width="24px" height="24px" viewBox="0 0 24 24" style="enable-background:new 0 0 24 24;" xml:space="preserve">
<style type="text/css">
<![CDATA[
	.st0{opacity:0.65;fill:#FFFFFF;}
	.st1{fill:none;}
	.stshockcolor{fill:#78909C;}
]]>
</style>
<rect class="st1" width="24" height="24"/>
<path id="shock_x5F_color" class="stshockcolor" d="M22,11c0-3-3-3-3-3h-1V3H6v5H5c-3,0-3,3-3,3v6h4v4h12v-4h4V11z"/>
<path class="st0" d="M19,12c-0.553,0-1-0.448-1-1s0.447-1,1-1s1,0.448,1,1S19.553,12,19,12z M18,13H6v8h12V13z M18,3H6v5h12V3z"/>
</svg>
