<?xml version="1.0" encoding="utf-8"?>
<!-- Generator: Adobe Illustrator 16.0.0, SVG Export Plug-In . SVG Version: 6.00 Build 0)  -->
<!DOCTYPE svg PUBLIC "-//W3C//DTD SVG 1.1//EN" "http://www.w3.org/Graphics/SVG/1.1/DTD/svg11.dtd">
<svg xmlns="http://www.w3.org/2000/svg" xmlns:xlink="http://www.w3.org/1999/xlink" version="1.1" id="Capa_1" x="0px" y="0px" width="24px" height="24px" viewBox="0 0 24 24" style="enable-background:new 0 0 24 24;" xml:space="preserve">
<style type="text/css">
<![CDATA[
	.stshockcolor{fill:#F57C00;}
	.st1{opacity:0.2;fill:#FFFFFF;}
	.st2{fill:none;}
	.st3{fill:#6D4C41;}
]]>
</style>
<rect class="st2" width="24" height="24"/>
<path class="st3" d="M10,4c0,0,0-1,1-1h2c0,0,1,0,1,1v4h-4V4z"/>
<path id="shock_x5F_color" class="stshockcolor" d="M22,14c0,3.82-3.35,7.02-7.83,7.81C13.47,21.93,12.75,22,12,22s-1.47-0.07-2.17-0.19  C5.35,21.02,2,17.82,2,14c0-5.36,2.4-7.53,7.91-7.93C10.56,6.02,11.26,6,12,6s1.44,0.02,2.09,0.07C19.6,6.47,22,8.64,22,14z"/>
<path class="st1" d="M17,14c0,4.27-2.18,7.08-2.83,7.81C13.47,21.93,12.75,22,12,22s-1.47-0.07-2.17-0.19C9.18,21.08,7,18.27,7,14  c0-5.38,2.41-7.54,2.91-7.93C10.56,6.02,11.26,6,12,6s1.44,0.02,2.09,0.07C14.59,6.46,17,8.62,17,14z"/>
</svg>
