<?xml version="1.0" encoding="utf-8"?>
<!-- Generator: Adobe Illustrator 16.0.0, SVG Export Plug-In . SVG Version: 6.00 Build 0)  -->
<!DOCTYPE svg PUBLIC "-//W3C//DTD SVG 1.1//EN" "http://www.w3.org/Graphics/SVG/1.1/DTD/svg11.dtd">
<svg xmlns="http://www.w3.org/2000/svg" xmlns:xlink="http://www.w3.org/1999/xlink" version="1.1" id="Capa_1" x="0px" y="0px" width="24px" height="24px" viewBox="0 0 24 24" style="enable-background:new 0 0 24 24;" xml:space="preserve">
<style type="text/css">
<![CDATA[
	.stshockcolor{fill:#5E35B1;}
	.st1{opacity:0.2;fill:#FFFFFF;}
	.st2{fill:none;}
]]>
</style>
<rect class="st2" width="24" height="24"/>
<path id="shock_x5F_color" class="stshockcolor" d="M5,20v2h14v-2H5z M18,8c0-3.31-2.689-6-6-6C8.69,2,6,4.69,6,8c0,4.5,6,11,6,11  S18,12.5,18,8z M10,8c0-1.1,0.9-2,2-2c1.1,0,2,0.9,2,2s-0.891,2-2,2C10.9,10,10,9.1,10,8z"/>
<path class="st1" d="M18,8c0-3.31-2.689-6-6-6C8.69,2,6,4.69,6,8c0,4.5,6,11,6,11S18,12.5,18,8z M10,8c0-1.1,0.9-2,2-2  c1.1,0,2,0.9,2,2s-0.891,2-2,2C10.9,10,10,9.1,10,8z"/>
</svg>
