<?xml version="1.0" encoding="utf-8"?>
<!-- Generator: Adobe Illustrator 16.0.0, SVG Export Plug-In . SVG Version: 6.00 Build 0)  -->
<!DOCTYPE svg PUBLIC "-//W3C//DTD SVG 1.1//EN" "http://www.w3.org/Graphics/SVG/1.1/DTD/svg11.dtd">
<svg xmlns="http://www.w3.org/2000/svg" xmlns:xlink="http://www.w3.org/1999/xlink" version="1.1" id="Capa_1" x="0px" y="0px" width="24px" height="24px" viewBox="0 0 24 24" style="enable-background:new 0 0 24 24;" xml:space="preserve">
<style type="text/css">
<![CDATA[
	.st0{fill:#E53935;}
	.st1{fill:#546E7A;}
	.st2{opacity:0.5;fill:#FFFFFF;}
	.st3{opacity:0.2;fill:#FFFFFF;}
	.st4{fill:none;}
	.stshockcolor{fill:#039BE5;}
]]>
</style>
<rect class="st4" width="24" height="24"/>
<path class="st1" d="M16,10v12c0,0.55-0.45,1-1,1H9c-0.55,0-1-0.45-1-1V10c0-0.55,0.45-1,1-1h6C15.55,9,16,9.45,16,10z"/>
<path id="shock_x5F_color" class="stshockcolor" d="M7.281,6.05l1.41,1.41C9.602,6.56,10.852,6,12.23,6c1.381,0,2.631,0.56,3.542,1.46  l1.41-1.41C15.91,4.78,14.16,4,12.23,4S8.551,4.78,7.281,6.05z M12.23,0C9.191,0,6.441,1.23,4.451,3.22l1.41,1.41  C7.49,3.01,9.74,2,12.23,2c2.491,0,4.741,1.01,6.359,2.64L20,3.23C18.021,1.23,15.271,0,12.23,0z"/>
<path class="st3" d="M12,9v14H9c-0.55,0-1-0.45-1-1V10c0-0.55,0.45-1,1-1H12z"/>
<circle class="st0" cx="12" cy="13" r="2"/>
<path class="st2" d="M12.23,0C9.191,0,6.441,1.23,4.451,3.22l1.41,1.41C7.49,3.01,9.74,2,12.23,2c2.491,0,4.741,1.01,6.359,2.64  L20,3.23C18.021,1.23,15.271,0,12.23,0z"/>
</svg>
