<?xml version="1.0" encoding="utf-8"?>
<!-- Generator: Adobe Illustrator 16.0.0, SVG Export Plug-In . SVG Version: 6.00 Build 0)  -->
<!DOCTYPE svg PUBLIC "-//W3C//DTD SVG 1.1//EN" "http://www.w3.org/Graphics/SVG/1.1/DTD/svg11.dtd">
<svg xmlns="http://www.w3.org/2000/svg" xmlns:xlink="http://www.w3.org/1999/xlink" version="1.1" id="Capa_1" x="0px" y="0px" width="24px" height="24px" viewBox="0 0 24 24" style="enable-background:new 0 0 24 24;" xml:space="preserve">
<style type="text/css">
<![CDATA[
	.st0{fill:#29B6F6;}
	.stshockcolor{fill:#FFB74D;}
	.st2{fill:none;}
	.st3{opacity:0.4;fill:#FFFFFF;}
]]>
</style>
<rect class="st2" width="24" height="24"/>
<path id="shock_x5F_color" class="stshockcolor" d="M2,6.044c0,0,0.04-2.02,2.02-2.02s15.98,0,15.98,0s1.99,0,1.99,1.99v11.991  c0,0,0,1.994-1.995,1.994c0,0-15.995-0.004-15.995,0c0,0.006-1.998,0.002-1.998-1.996L2,6.044z"/>
<path class="st3" d="M22,6.009L12.01,11L2.02,6c0.01-0.29,0.2-1.98,2.01-1.98c0.98,0,15.98,0,15.98,0S22,4.02,22,6.009z M12.01,13  l-10-5v10c0,2,2,2,2,2c0-0.01,16,0,16,0C22,20,22,18,22,18V8.009L12.01,13z"/>
<polygon class="st0" points="21.41,12 15.71,17.71 14.29,16.29 17.59,13 2,13 2,11 17.59,11 14.29,7.71 15.71,6.29 "/>
</svg>
