<?xml version="1.0" encoding="utf-8"?>
<!-- Generator: Adobe Illustrator 16.0.0, SVG Export Plug-In . SVG Version: 6.00 Build 0)  -->
<!DOCTYPE svg PUBLIC "-//W3C//DTD SVG 1.1//EN" "http://www.w3.org/Graphics/SVG/1.1/DTD/svg11.dtd">
<svg xmlns="http://www.w3.org/2000/svg" xmlns:xlink="http://www.w3.org/1999/xlink" version="1.1" id="Capa_1" x="0px" y="0px" width="24px" height="24px" viewBox="0 0 24 24" style="enable-background:new 0 0 24 24;" xml:space="preserve">
<style type="text/css">
<![CDATA[
	.st0{opacity:0.3;fill:#FFFFFF;}
	.st1{fill:none;}
	.stshockcolor{fill:#6D4C41;}
]]>
</style>
<rect class="st1" width="24" height="24"/>
<path id="shock_x5F_color" class="stshockcolor" d="M21,7v12c0,2-2,2-2,2H5c-2,0-2-2-2-2V7l3-4h12L21,7z"/>
<path class="st0" d="M21,7v12c0,2-2,2-2,2h-6v-8.59l1.29,1.3l1.42-1.42L12,8.59l-3.71,3.7l1.42,1.42l1.29-1.3V21H5c-2,0-2-2-2-2V7  H21z"/>
</svg>
