<?xml version="1.0" encoding="utf-8"?>
<!-- Generator: Adobe Illustrator 16.0.0, SVG Export Plug-In . SVG Version: 6.00 Build 0)  -->
<!DOCTYPE svg PUBLIC "-//W3C//DTD SVG 1.1//EN" "http://www.w3.org/Graphics/SVG/1.1/DTD/svg11.dtd">
<svg xmlns="http://www.w3.org/2000/svg" xmlns:xlink="http://www.w3.org/1999/xlink" version="1.1" id="Capa_1" x="0px" y="0px" width="24px" height="24px" viewBox="0 0 24 24" style="enable-background:new 0 0 24 24;" xml:space="preserve">
<style type="text/css">
<![CDATA[
	.st0{fill:none;}
	.st1{opacity:0.7;fill:#FFFFFF;}
	.stshockcolor{fill:#42A5F5;}
]]>
</style>
<rect class="st0" width="24" height="24"/>
<path id="shock_x5F_color" class="stshockcolor" d="M20,4c0-1.104-0.896-2-2-2H6C4.896,2,4,2.896,4,4v16c0,1.104,0.896,2,2,2h12  c1.104,0,2-0.896,2-2V4z"/>
<path class="st1" d="M15,6.81v2.56c0.62,0.7,1,1.62,1,2.63c0,2.21-1.79,4-4,4s-4-1.79-4-4c0-1.01,0.38-1.93,1-2.63V6.81  C7.21,7.84,6,9.78,6,12c0,3.31,2.69,6,6,6c3.31,0,6-2.69,6-6C18,9.78,16.79,7.84,15,6.81z M13,6.09C12.68,6.03,12.34,6,12,6  s-0.68,0.03-1,0.09V12h2V6.09z"/>
</svg>
