<?xml version="1.0" encoding="utf-8"?>
<!-- Generator: Adobe Illustrator 16.0.0, SVG Export Plug-In . SVG Version: 6.00 Build 0)  -->
<!DOCTYPE svg PUBLIC "-//W3C//DTD SVG 1.1//EN" "http://www.w3.org/Graphics/SVG/1.1/DTD/svg11.dtd">
<svg xmlns="http://www.w3.org/2000/svg" xmlns:xlink="http://www.w3.org/1999/xlink" version="1.1" id="Capa_1" x="0px" y="0px" width="24px" height="24px" viewBox="0 0 24 24" style="enable-background:new 0 0 24 24;" xml:space="preserve">
<style type="text/css">
<![CDATA[
	.stshockcolor{fill:#B3E5FC;}
	.st1{opacity:0.2;fill:#FFFFFF;}
	.st2{fill:none;}
	.st3{fill:#D32F2F;}
]]>
</style>
<rect class="st2" width="24" height="24"/>
<path id="shock_x5F_color" class="stshockcolor" d="M17,18c0,2.76-2.24,5-5,5s-5-2.24-5-5c0-1.63,0.79-3.09,2-4V4c0-1.66,1.34-3,3-3  c0.83,0,1.58,0.34,2.12,0.88S15,3.17,15,4v10C16.21,14.91,17,16.37,17,18z"/>
<path class="st3" d="M15,18c0,1.66-1.34,3-3,3s-3-1.34-3-3c0-1.311,0.83-2.42,2-2.82V4c0,0,0-1,1-1s1,1,1,1v11.18  C14.17,15.58,15,16.689,15,18z"/>
<path class="st1" d="M15,4v5H9V4c0-1.66,1.34-3,3-3c0.83,0,1.58,0.34,2.12,0.88S15,3.17,15,4z M15,11H9v2h6V11z"/>
</svg>
