<?xml version="1.0" encoding="utf-8"?>
<!-- Generator: Adobe Illustrator 16.0.0, SVG Export Plug-In . SVG Version: 6.00 Build 0)  -->
<!DOCTYPE svg PUBLIC "-//W3C//DTD SVG 1.1//EN" "http://www.w3.org/Graphics/SVG/1.1/DTD/svg11.dtd">
<svg xmlns="http://www.w3.org/2000/svg" xmlns:xlink="http://www.w3.org/1999/xlink" version="1.1" id="Capa_1" x="0px" y="0px" width="24px" height="24px" viewBox="0 0 24 24" style="enable-background:new 0 0 24 24;" xml:space="preserve">
<style type="text/css">
<![CDATA[
	.st0{opacity:0.3;fill:#FFFFFF;}
	.stshockcolor{fill:#EF5350;}
	.st2{fill:none;}
]]>
</style>
<path class="st2" d="M0,0h24v24H0V0z"/>
<path id="shock_x5F_color" class="stshockcolor" d="M21,6c0,5-3.5,5-3.5,5C16,11,15,10.1,15,9v6.02c0.62,0.521,1,1.221,1,1.98  c0,1.4-1.27,2.57-3,2.9V23h-2v-3.1c-1.73-0.33-3-1.5-3-2.9c0-0.76,0.38-1.46,1-1.98V9c0,1.1-1,2-2.5,2c0,0-3.5,0-3.5-5s3.5-5,3.5-5  C8,1,9,1.9,9,3S8.1,5,7,5c1.61,0,4,1.07,4,4v5.1c0.32-0.069,0.65-0.1,1-0.1s0.68,0.03,1,0.1V9c0-2.93,2.39-4,4-4c-1.1,0-2-0.9-2-2  s1-2,2.5-2C17.5,1,21,1,21,6z"/>
<path class="st0" d="M16,17c0,1.4-1.27,2.57-3,2.9V23h-2v-3.1c-1.73-0.33-3-1.5-3-2.9c0-1.66,1.79-3,4-3S16,15.34,16,17z M3,6  c0,5,3.5,5,3.5,5C8,11,9,10.104,9,9c0-2-2-2-2-2S6,7,6,6s1-1,1-1c1.104,0,2-0.896,2-2S8,1,6.5,1C6.5,1,3,1,3,6z M17.5,1  C16,1,15,1.896,15,3s0.896,2,2,2c0,0,1,0,1,1s-1,1-1,1s-2,0-2,2c0,1.104,1,2,2.5,2c0,0,3.5,0,3.5-5S17.5,1,17.5,1z"/>
</svg>
