<?xml version="1.0" encoding="utf-8"?>
<!-- Generator: Adobe Illustrator 16.0.0, SVG Export Plug-In . SVG Version: 6.00 Build 0)  -->
<!DOCTYPE svg PUBLIC "-//W3C//DTD SVG 1.1//EN" "http://www.w3.org/Graphics/SVG/1.1/DTD/svg11.dtd">
<svg xmlns="http://www.w3.org/2000/svg" xmlns:xlink="http://www.w3.org/1999/xlink" version="1.1" id="Capa_1" x="0px" y="0px" width="24px" height="24px" viewBox="0 0 24 24" style="enable-background:new 0 0 24 24;" xml:space="preserve">
<style type="text/css">
<![CDATA[
	.st0{opacity:0.5;fill:#FFFFFF;}
	.st1{fill:none;}
	.st2{fill:#37474F;}
	.stshockcolor{fill:#039BE5;}
]]>
</style>
<rect class="st1" width="24" height="24"/>
<path id="shock_x5F_color" class="stshockcolor" d="M18,10h-1V8c0-1.729-1.045-5-5-5S7,6.271,7,8v2H6c-1.104,0-2,0.896-2,2v8  c0,1.104,0.896,2,2,2h12c1.104,0,2-0.896,2-2v-8C20,10.896,19.104,10,18,10z M9,10V8.005C9.006,7.503,9.177,5,12,5  c2.823,0,2.994,2.503,3,3v2H9z"/>
<path class="st0" d="M20,12c0-1.104-0.896-2-2-2H6c-1.104,0-2,0.896-2,2v8c0,1.104,0.896,2,2,2h12c1.104,0,2-0.896,2-2V12z"/>
<path class="st2" d="M14,15c0-1.104-0.896-2-2-2s-2,0.896-2,2c0,0.738,0.405,1.376,1,1.723V20h2v-3.277  C13.596,16.376,14,15.738,14,15z"/>
</svg>
