<?xml version="1.0" encoding="utf-8"?>
<!-- Generator: Adobe Illustrator 16.0.0, SVG Export Plug-In . SVG Version: 6.00 Build 0)  -->
<!DOCTYPE svg PUBLIC "-//W3C//DTD SVG 1.1//EN" "http://www.w3.org/Graphics/SVG/1.1/DTD/svg11.dtd">
<svg xmlns="http://www.w3.org/2000/svg" xmlns:xlink="http://www.w3.org/1999/xlink" version="1.1" id="Capa_1" x="0px" y="0px" width="24px" height="24px" viewBox="0 0 24 24" style="enable-background:new 0 0 24 24;" xml:space="preserve">
<style type="text/css">
<![CDATA[
	.st0{opacity:0.25;fill:#FFFFFF;}
	.st1{fill:#C5CAE9;}
	.st2{fill:none;}
	.stshockcolor{fill:#37474F;}
]]>
</style>
<rect class="st2" width="24" height="24"/>
<path id="shock_x5F_color" class="stshockcolor" d="M22.71,21.29l-1.42,1.42l-4.68-4.68C15.07,19.26,13.12,20,11,20c-4.97,0-9-4.03-9-9  c0-4.97,4.03-9,9-9c4.97,0,9,4.03,9,9c0,2.12-0.74,4.07-1.97,5.61L22.71,21.29z"/>
<path class="st0" d="M11,2c-4.97,0-9,4.03-9,9c0,4.97,4.03,9,9,9c4.97,0,9-4.03,9-9C20,6.03,15.97,2,11,2z M11,18  c-3.86,0-7-3.14-7-7c0-3.86,3.14-7,7-7c3.86,0,7,3.14,7,7C18,14.86,14.86,18,11,18z"/>
<circle class="st1" cx="11" cy="11" r="7"/>
</svg>
